<svg width="54" height="54" viewBox="0 0 54 54" fill="none" xmlns="http://www.w3.org/2000/svg">
<circle cx="27" cy="27" r="27" fill="#926BE6"/>
<path d="M20.75 20.75V33.25H33.25V20.75H20.75ZM30.75 30.75H23.25V23.25H30.75V30.75Z" fill="white"/>
<path d="M44.5 23.25V20.75H39.5V17C39.5 16.337 39.2366 15.7011 38.7678 15.2322C38.2989 14.7634 37.663 14.5 37 14.5H33.25V9.5H30.75V14.5H23.25V9.5H20.75V14.5H17C16.337 14.5 15.7011 14.7634 15.2322 15.2322C14.7634 15.7011 14.5 16.337 14.5 17V20.75H9.5V23.25H14.5V30.75H9.5V33.25H14.5V37C14.5 37.663 14.7634 38.2989 15.2322 38.7678C15.7011 39.2366 16.337 39.5 17 39.5H20.75V44.5H23.25V39.5H30.75V44.5H33.25V39.5H37C37.663 39.5 38.2989 39.2366 38.7678 38.7678C39.2366 38.2989 39.5 37.663 39.5 37V33.25H44.5V30.75H39.5V23.25H44.5ZM37 37H17V17H37V37Z" fill="white"/>
</svg>
