<svg width="62" height="62" viewBox="0 0 62 62" fill="none" xmlns="http://www.w3.org/2000/svg">
<g filter="url(#filter0_d_90_1265)">
<circle cx="31" cy="27" r="27" fill="#926BE6"/>
<path d="M29 15H21C20.4696 15 19.9609 15.2107 19.5858 15.5858C19.2107 15.9609 19 16.4696 19 17V31.6667C19 32.1971 19.2107 32.7058 19.5858 33.0809C19.9609 33.456 20.4696 33.6667 21 33.6667H41C41.5304 33.6667 42.0391 33.456 42.4142 33.0809C42.7893 32.7058 43 32.1971 43 31.6667V25M31 33.6667V39" stroke="white" stroke-width="3.66667" stroke-linecap="round" stroke-linejoin="round"/>
<path d="M36.3333 15L33.6666 17.6667L36.3333 20.3333M40.3333 15L42.9999 17.6667L40.3333 20.3333M24.3333 39H37.6666" stroke="white" stroke-width="3.66667" stroke-linecap="round" stroke-linejoin="round"/>
</g>
<defs>
<filter id="filter0_d_90_1265" x="0" y="0" width="62" height="62" filterUnits="userSpaceOnUse" color-interpolation-filters="sRGB">
<feFlood flood-opacity="0" result="BackgroundImageFix"/>
<feColorMatrix in="SourceAlpha" type="matrix" values="0 0 0 0 0 0 0 0 0 0 0 0 0 0 0 0 0 0 127 0" result="hardAlpha"/>
<feOffset dy="4"/>
<feGaussianBlur stdDeviation="2"/>
<feComposite in2="hardAlpha" operator="out"/>
<feColorMatrix type="matrix" values="0 0 0 0 0 0 0 0 0 0 0 0 0 0 0 0 0 0 0.25 0"/>
<feBlend mode="normal" in2="BackgroundImageFix" result="effect1_dropShadow_90_1265"/>
<feBlend mode="normal" in="SourceGraphic" in2="effect1_dropShadow_90_1265" result="shape"/>
</filter>
</defs>
</svg>
