<svg width="719" height="595" viewBox="0 0 719 595" fill="none" xmlns="http://www.w3.org/2000/svg">
<circle cx="456.737" cy="262.263" r="262.263" fill="#926BE6"/>
<rect y="367.835" width="576.756" height="42.2287" rx="20" fill="#DEA34A"/>
<g clip-path="url(#clip0_57_1137)">
<path opacity="0.1" d="M499.632 428.245C549.773 428.245 565.048 386.783 550.603 336.005C542.434 307.288 523.543 269.736 492.68 252.742C408.223 206.237 419.605 204.004 398.697 154.504C364.567 73.6995 233.328 70.5814 179.703 128.484C137.979 173.537 120.123 237.05 63.2763 283.846C-5.34105 340.332 13.3744 429.063 79.2857 429.063L499.632 428.245Z" fill="#926BE6"/>
<path d="M555.78 378.647H26.9253L57.3616 312.959H525.343L555.78 378.647Z" fill="#353535"/>
<path d="M555.78 378.647H26.9253L57.3616 312.959H525.343L555.78 378.647Z" fill="white"/>
<path d="M555.779 379.226H26.9279C26.8307 379.226 26.7349 379.201 26.6496 379.155C26.5643 379.108 26.4923 379.04 26.4401 378.958C26.3879 378.875 26.3574 378.781 26.3512 378.684C26.3451 378.586 26.3636 378.489 26.4051 378.401L56.8391 312.713C56.8857 312.613 56.9595 312.529 57.052 312.47C57.1445 312.411 57.2518 312.38 57.3614 312.38H525.342C525.452 312.38 525.56 312.411 525.652 312.47C525.745 312.529 525.819 312.613 525.865 312.713L556.303 378.401C556.345 378.489 556.363 378.586 556.357 378.683C556.351 378.78 556.321 378.874 556.269 378.956C556.218 379.038 556.146 379.106 556.061 379.153C555.976 379.2 555.881 379.225 555.784 379.226H555.779ZM27.8334 378.069H554.87L524.977 313.537H57.7284L27.8334 378.069Z" fill="#353535"/>
<path d="M327.924 290.966H276.709V329.786H327.924V290.966Z" fill="#353535"/>
<path opacity="0.64" d="M327.925 290.967H276.709V311.705H327.925V290.967Z" fill="#646464"/>
<path d="M411.093 136.949H193.54C190.119 136.949 187.345 139.731 187.345 143.161V295.39C187.345 298.82 190.119 301.602 193.54 301.602H411.093C414.515 301.602 417.289 298.82 417.289 295.39V143.161C417.289 139.731 414.515 136.949 411.093 136.949Z" fill="#353535"/>
<path d="M408.035 144.006H196.599C195.194 144.006 194.056 145.147 194.056 146.555V272.807C194.056 274.215 195.194 275.357 196.599 275.357H408.035C409.439 275.357 410.578 274.215 410.578 272.807V146.555C410.578 145.147 409.439 144.006 408.035 144.006Z" fill="white"/>
<path d="M338.58 326.596H266.054C264.198 326.596 262.693 328.104 262.693 329.965C262.693 331.826 264.198 333.335 266.054 333.335H338.58C340.436 333.335 341.941 331.826 341.941 329.965C341.941 328.104 340.436 326.596 338.58 326.596Z" fill="#353535"/>
<path d="M266.446 164.987H256.817C256.76 164.989 256.703 164.979 256.649 164.959C256.595 164.938 256.546 164.907 256.505 164.867C256.463 164.827 256.431 164.779 256.408 164.726C256.386 164.673 256.374 164.616 256.374 164.558C256.374 164.501 256.386 164.443 256.408 164.39C256.431 164.337 256.463 164.289 256.505 164.249C256.546 164.209 256.595 164.178 256.649 164.158C256.703 164.137 256.76 164.128 256.817 164.13H266.446C266.557 164.134 266.662 164.181 266.738 164.261C266.815 164.34 266.858 164.447 266.858 164.558C266.858 164.669 266.815 164.776 266.738 164.856C266.662 164.936 266.557 164.983 266.446 164.987Z" fill="#353535"/>
<path d="M249.873 164.987H246.23C246.173 164.989 246.115 164.979 246.062 164.959C246.008 164.938 245.959 164.907 245.917 164.867C245.876 164.827 245.843 164.779 245.821 164.726C245.798 164.673 245.787 164.616 245.787 164.558C245.787 164.501 245.798 164.443 245.821 164.39C245.843 164.337 245.876 164.289 245.917 164.249C245.959 164.209 246.008 164.178 246.062 164.158C246.115 164.137 246.173 164.128 246.23 164.13H249.873C249.931 164.128 249.988 164.137 250.042 164.158C250.095 164.178 250.144 164.209 250.186 164.249C250.227 164.289 250.26 164.337 250.282 164.39C250.305 164.443 250.317 164.501 250.317 164.558C250.317 164.616 250.305 164.673 250.282 164.726C250.26 164.779 250.227 164.827 250.186 164.867C250.144 164.907 250.095 164.938 250.042 164.959C249.988 164.979 249.931 164.989 249.873 164.987Z" fill="#926BE6"/>
<path d="M249.873 172.72H246.23C246.116 172.72 246.008 172.675 245.927 172.594C245.847 172.514 245.802 172.405 245.802 172.291C245.802 172.177 245.847 172.068 245.927 171.988C246.008 171.907 246.116 171.862 246.23 171.862H249.873C249.987 171.862 250.095 171.907 250.175 171.988C250.256 172.068 250.301 172.177 250.301 172.291C250.301 172.405 250.256 172.514 250.175 172.594C250.095 172.675 249.987 172.72 249.873 172.72Z" fill="#926BE6"/>
<path d="M249.873 180.453H246.23C246.116 180.453 246.008 180.408 245.927 180.327C245.847 180.247 245.802 180.138 245.802 180.024C245.802 179.91 245.847 179.801 245.927 179.721C246.008 179.641 246.116 179.595 246.23 179.595H249.873C249.987 179.595 250.095 179.641 250.175 179.721C250.256 179.801 250.301 179.91 250.301 180.024C250.301 180.138 250.256 180.247 250.175 180.327C250.095 180.408 249.987 180.453 249.873 180.453Z" fill="#926BE6"/>
<path d="M249.873 188.186H246.23C246.116 188.186 246.008 188.141 245.927 188.06C245.847 187.98 245.802 187.871 245.802 187.757C245.802 187.644 245.847 187.535 245.927 187.454C246.008 187.374 246.116 187.329 246.23 187.329H249.873C249.987 187.329 250.095 187.374 250.175 187.454C250.256 187.535 250.301 187.644 250.301 187.757C250.301 187.871 250.256 187.98 250.175 188.06C250.095 188.141 249.987 188.186 249.873 188.186Z" fill="#926BE6"/>
<path d="M249.873 195.919H246.23C246.173 195.921 246.115 195.911 246.062 195.891C246.008 195.87 245.959 195.839 245.917 195.799C245.876 195.759 245.843 195.711 245.821 195.658C245.798 195.605 245.787 195.548 245.787 195.49C245.787 195.433 245.798 195.376 245.821 195.322C245.843 195.269 245.876 195.221 245.917 195.181C245.959 195.141 246.008 195.11 246.062 195.09C246.115 195.069 246.173 195.06 246.23 195.062H249.873C249.931 195.06 249.988 195.069 250.042 195.09C250.095 195.11 250.144 195.141 250.186 195.181C250.227 195.221 250.26 195.269 250.282 195.322C250.305 195.376 250.317 195.433 250.317 195.49C250.317 195.548 250.305 195.605 250.282 195.658C250.26 195.711 250.227 195.759 250.186 195.799C250.144 195.839 250.095 195.87 250.042 195.891C249.988 195.911 249.931 195.921 249.873 195.919Z" fill="#926BE6"/>
<path d="M249.873 203.649H246.23C246.116 203.649 246.008 203.604 245.927 203.524C245.847 203.443 245.802 203.334 245.802 203.221C245.802 203.107 245.847 202.998 245.927 202.918C246.008 202.837 246.116 202.792 246.23 202.792H249.873C249.987 202.792 250.095 202.837 250.175 202.918C250.256 202.998 250.301 203.107 250.301 203.221C250.301 203.334 250.256 203.443 250.175 203.524C250.095 203.604 249.987 203.649 249.873 203.649Z" fill="#926BE6"/>
<path d="M249.873 211.385H246.23C246.116 211.385 246.008 211.34 245.927 211.259C245.847 211.179 245.802 211.07 245.802 210.956C245.802 210.842 245.847 210.733 245.927 210.653C246.008 210.573 246.116 210.527 246.23 210.527H249.873C249.987 210.527 250.095 210.573 250.175 210.653C250.256 210.733 250.301 210.842 250.301 210.956C250.301 211.07 250.256 211.179 250.175 211.259C250.095 211.34 249.987 211.385 249.873 211.385Z" fill="#926BE6"/>
<path d="M249.873 219.118H246.23C246.173 219.12 246.115 219.11 246.062 219.09C246.008 219.069 245.959 219.038 245.917 218.998C245.876 218.958 245.843 218.91 245.821 218.857C245.798 218.804 245.787 218.747 245.787 218.689C245.787 218.631 245.798 218.574 245.821 218.521C245.843 218.468 245.876 218.42 245.917 218.38C245.959 218.34 246.008 218.309 246.062 218.289C246.115 218.268 246.173 218.258 246.23 218.261H249.873C249.931 218.258 249.988 218.268 250.042 218.289C250.095 218.309 250.144 218.34 250.186 218.38C250.227 218.42 250.26 218.468 250.282 218.521C250.305 218.574 250.317 218.631 250.317 218.689C250.317 218.747 250.305 218.804 250.282 218.857C250.26 218.91 250.227 218.958 250.186 218.998C250.144 219.038 250.095 219.069 250.042 219.09C249.988 219.11 249.931 219.12 249.873 219.118Z" fill="#926BE6"/>
<path d="M249.873 226.852H246.23C246.116 226.852 246.008 226.807 245.927 226.726C245.847 226.646 245.802 226.537 245.802 226.423C245.802 226.309 245.847 226.2 245.927 226.12C246.008 226.039 246.116 225.994 246.23 225.994H249.873C249.987 225.994 250.095 226.039 250.175 226.12C250.256 226.2 250.301 226.309 250.301 226.423C250.301 226.537 250.256 226.646 250.175 226.726C250.095 226.807 249.987 226.852 249.873 226.852Z" fill="#926BE6"/>
<path d="M249.873 234.584H246.23C246.116 234.584 246.008 234.539 245.927 234.458C245.847 234.378 245.802 234.269 245.802 234.155C245.802 234.041 245.847 233.932 245.927 233.852C246.008 233.771 246.116 233.726 246.23 233.726H249.873C249.987 233.726 250.095 233.771 250.175 233.852C250.256 233.932 250.301 234.041 250.301 234.155C250.301 234.269 250.256 234.378 250.175 234.458C250.095 234.539 249.987 234.584 249.873 234.584Z" fill="#926BE6"/>
<path d="M249.873 242.316H246.23C246.173 242.318 246.115 242.309 246.062 242.288C246.008 242.268 245.959 242.237 245.917 242.197C245.876 242.157 245.843 242.109 245.821 242.056C245.798 242.003 245.787 241.946 245.787 241.888C245.787 241.83 245.798 241.773 245.821 241.72C245.843 241.667 245.876 241.619 245.917 241.579C245.959 241.539 246.008 241.508 246.062 241.487C246.115 241.467 246.173 241.457 246.23 241.459H249.873C249.931 241.457 249.988 241.467 250.042 241.487C250.095 241.508 250.144 241.539 250.186 241.579C250.227 241.619 250.26 241.667 250.282 241.72C250.305 241.773 250.317 241.83 250.317 241.888C250.317 241.946 250.305 242.003 250.282 242.056C250.26 242.109 250.227 242.157 250.186 242.197C250.144 242.237 250.095 242.268 250.042 242.288C249.988 242.309 249.931 242.318 249.873 242.316Z" fill="#926BE6"/>
<path d="M249.873 250.05H246.23C246.116 250.05 246.008 250.004 245.927 249.924C245.847 249.844 245.802 249.734 245.802 249.621C245.802 249.507 245.847 249.398 245.927 249.318C246.008 249.237 246.116 249.192 246.23 249.192H249.873C249.987 249.192 250.095 249.237 250.175 249.318C250.256 249.398 250.301 249.507 250.301 249.621C250.301 249.734 250.256 249.844 250.175 249.924C250.095 250.004 249.987 250.05 249.873 250.05Z" fill="#926BE6"/>
<path d="M249.873 257.783H246.23C246.116 257.783 246.008 257.737 245.927 257.657C245.847 257.577 245.802 257.468 245.802 257.354C245.802 257.24 245.847 257.131 245.927 257.051C246.008 256.97 246.116 256.925 246.23 256.925H249.873C249.987 256.925 250.095 256.97 250.175 257.051C250.256 257.131 250.301 257.24 250.301 257.354C250.301 257.468 250.256 257.577 250.175 257.657C250.095 257.737 249.987 257.783 249.873 257.783Z" fill="#926BE6"/>
<path d="M249.873 265.515H246.23C246.173 265.517 246.115 265.508 246.062 265.487C246.008 265.467 245.959 265.436 245.917 265.396C245.876 265.356 245.843 265.308 245.821 265.255C245.798 265.201 245.787 265.144 245.787 265.087C245.787 265.029 245.798 264.972 245.821 264.919C245.843 264.866 245.876 264.818 245.917 264.778C245.959 264.738 246.008 264.707 246.062 264.686C246.115 264.666 246.173 264.656 246.23 264.658H249.873C249.931 264.656 249.988 264.666 250.042 264.686C250.095 264.707 250.144 264.738 250.186 264.778C250.227 264.818 250.26 264.866 250.282 264.919C250.305 264.972 250.317 265.029 250.317 265.087C250.317 265.144 250.305 265.201 250.282 265.255C250.26 265.308 250.227 265.356 250.186 265.396C250.144 265.436 250.095 265.467 250.042 265.487C249.988 265.508 249.931 265.517 249.873 265.515Z" fill="#926BE6"/>
<path d="M274.142 172.72H265.37C265.312 172.722 265.255 172.712 265.201 172.692C265.148 172.671 265.099 172.64 265.057 172.6C265.016 172.56 264.983 172.512 264.96 172.459C264.938 172.406 264.926 172.349 264.926 172.291C264.926 172.234 264.938 172.177 264.96 172.124C264.983 172.071 265.016 172.023 265.057 171.983C265.099 171.943 265.148 171.911 265.201 171.891C265.255 171.87 265.312 171.861 265.37 171.863H274.142C274.199 171.861 274.256 171.87 274.31 171.891C274.364 171.911 274.413 171.943 274.454 171.983C274.495 172.023 274.528 172.071 274.551 172.124C274.573 172.177 274.585 172.234 274.585 172.291C274.585 172.349 274.573 172.406 274.551 172.459C274.528 172.512 274.495 172.56 274.454 172.6C274.413 172.64 274.364 172.671 274.31 172.692C274.256 172.712 274.199 172.722 274.142 172.72Z" fill="#353535"/>
<path d="M266.446 219.117H256.817C256.76 219.12 256.703 219.11 256.649 219.089C256.595 219.069 256.546 219.038 256.505 218.998C256.463 218.958 256.431 218.91 256.408 218.857C256.386 218.804 256.374 218.747 256.374 218.689C256.374 218.631 256.386 218.574 256.408 218.521C256.431 218.468 256.463 218.42 256.505 218.38C256.546 218.34 256.595 218.309 256.649 218.289C256.703 218.268 256.76 218.258 256.817 218.261H266.446C266.557 218.265 266.662 218.312 266.738 218.391C266.815 218.471 266.858 218.578 266.858 218.689C266.858 218.8 266.815 218.907 266.738 218.987C266.662 219.066 266.557 219.113 266.446 219.117Z" fill="#353535"/>
<path d="M274.141 226.852H265.37C265.256 226.852 265.147 226.807 265.067 226.726C264.987 226.646 264.942 226.537 264.942 226.423C264.942 226.309 264.987 226.2 265.067 226.12C265.147 226.039 265.256 225.994 265.37 225.994H274.141C274.255 225.994 274.364 226.039 274.444 226.12C274.524 226.2 274.569 226.309 274.569 226.423C274.569 226.537 274.524 226.646 274.444 226.726C274.364 226.807 274.255 226.852 274.141 226.852Z" fill="#353535"/>
<path d="M335.278 180.453H271.353C271.24 180.453 271.131 180.408 271.051 180.327C270.971 180.247 270.926 180.138 270.926 180.024C270.926 179.91 270.971 179.801 271.051 179.721C271.131 179.641 271.24 179.595 271.353 179.595H335.278C335.391 179.595 335.5 179.641 335.58 179.721C335.66 179.801 335.705 179.91 335.705 180.024C335.705 180.138 335.66 180.247 335.58 180.327C335.5 180.408 335.391 180.453 335.278 180.453Z" fill="#353535"/>
<path d="M381.526 180.453H344.534C344.42 180.453 344.311 180.408 344.231 180.327C344.151 180.247 344.106 180.138 344.106 180.024C344.106 179.91 344.151 179.801 344.231 179.721C344.311 179.641 344.42 179.595 344.534 179.595H381.526C381.639 179.595 381.748 179.641 381.828 179.721C381.908 179.801 381.953 179.91 381.953 180.024C381.953 180.138 381.908 180.247 381.828 180.327C381.748 180.408 381.639 180.453 381.526 180.453Z" fill="#0CBC8B"/>
<path d="M401.377 180.453H390.04C389.927 180.453 389.818 180.408 389.738 180.327C389.657 180.247 389.612 180.138 389.612 180.024C389.612 179.91 389.657 179.801 389.738 179.721C389.818 179.641 389.927 179.595 390.04 179.595H401.378C401.492 179.595 401.6 179.641 401.681 179.721C401.761 179.801 401.806 179.91 401.806 180.024C401.806 180.138 401.761 180.247 401.681 180.327C401.6 180.408 401.492 180.453 401.378 180.453H401.377Z" fill="#353535"/>
<path d="M360.929 195.919H271.353C271.296 195.921 271.239 195.911 271.185 195.891C271.131 195.87 271.082 195.839 271.041 195.799C271 195.759 270.967 195.711 270.944 195.658C270.922 195.605 270.91 195.548 270.91 195.49C270.91 195.433 270.922 195.375 270.944 195.322C270.967 195.269 271 195.221 271.041 195.181C271.082 195.141 271.131 195.11 271.185 195.09C271.239 195.069 271.296 195.06 271.353 195.062H360.929C360.987 195.06 361.044 195.069 361.098 195.09C361.152 195.11 361.201 195.141 361.242 195.181C361.283 195.221 361.316 195.269 361.339 195.322C361.361 195.375 361.373 195.433 361.373 195.49C361.373 195.548 361.361 195.605 361.339 195.658C361.316 195.711 361.283 195.759 361.242 195.799C361.201 195.839 361.152 195.87 361.098 195.891C361.044 195.911 360.987 195.921 360.929 195.919Z" fill="#353535"/>
<path d="M381.526 195.919H370.188C370.131 195.921 370.073 195.911 370.02 195.891C369.966 195.87 369.917 195.839 369.875 195.799C369.834 195.759 369.801 195.711 369.779 195.658C369.756 195.605 369.745 195.548 369.745 195.49C369.745 195.433 369.756 195.375 369.779 195.322C369.801 195.269 369.834 195.221 369.875 195.181C369.917 195.141 369.966 195.11 370.02 195.09C370.073 195.069 370.131 195.06 370.188 195.062H381.527C381.584 195.06 381.642 195.069 381.695 195.09C381.749 195.11 381.798 195.141 381.839 195.181C381.881 195.221 381.914 195.269 381.936 195.322C381.959 195.375 381.97 195.433 381.97 195.49C381.97 195.548 381.959 195.605 381.936 195.658C381.914 195.711 381.881 195.759 381.839 195.799C381.798 195.839 381.749 195.87 381.695 195.891C381.642 195.911 381.584 195.921 381.527 195.919H381.526Z" fill="#926BE6"/>
<path d="M280.982 188.186H271.353C271.24 188.186 271.131 188.141 271.051 188.06C270.971 187.98 270.926 187.871 270.926 187.757C270.926 187.644 270.971 187.535 271.051 187.454C271.131 187.374 271.24 187.329 271.353 187.329H280.982C281.096 187.329 281.205 187.374 281.285 187.454C281.365 187.535 281.41 187.644 281.41 187.757C281.41 187.871 281.365 187.98 281.285 188.06C281.205 188.141 281.096 188.186 280.982 188.186Z" fill="#0CBC8B"/>
<path d="M355.876 188.186H290.239C290.126 188.186 290.017 188.141 289.937 188.06C289.857 187.98 289.812 187.871 289.812 187.757C289.812 187.644 289.857 187.535 289.937 187.454C290.017 187.374 290.126 187.329 290.239 187.329H355.876C355.989 187.329 356.098 187.374 356.178 187.454C356.258 187.535 356.303 187.644 356.303 187.757C356.303 187.871 356.258 187.98 356.178 188.06C356.098 188.141 355.989 188.186 355.876 188.186Z" fill="#926BE6"/>
<path d="M401.452 188.186H366.171C366.058 188.186 365.949 188.141 365.869 188.06C365.789 187.98 365.744 187.871 365.744 187.757C365.744 187.644 365.789 187.535 365.869 187.454C365.949 187.374 366.058 187.329 366.171 187.329H401.452C401.565 187.329 401.674 187.374 401.754 187.454C401.834 187.535 401.879 187.644 401.879 187.757C401.879 187.871 401.834 187.98 401.754 188.06C401.674 188.141 401.565 188.186 401.452 188.186Z" fill="#353535"/>
<path d="M335.278 203.649H271.353C271.24 203.649 271.131 203.604 271.051 203.524C270.971 203.443 270.926 203.334 270.926 203.221C270.926 203.107 270.971 202.998 271.051 202.918C271.131 202.837 271.24 202.792 271.353 202.792H335.278C335.391 202.792 335.5 202.837 335.58 202.918C335.66 202.998 335.705 203.107 335.705 203.221C335.705 203.334 335.66 203.443 335.58 203.524C335.5 203.604 335.391 203.649 335.278 203.649Z" fill="#353535"/>
<path d="M364.424 203.649H344.535C344.421 203.649 344.312 203.604 344.232 203.524C344.152 203.443 344.107 203.334 344.107 203.221C344.107 203.107 344.152 202.998 344.232 202.918C344.312 202.837 344.421 202.792 344.535 202.792H364.424C364.538 202.792 364.647 202.837 364.727 202.918C364.807 202.998 364.852 203.107 364.852 203.221C364.852 203.334 364.807 203.443 364.727 203.524C364.647 203.604 364.538 203.649 364.424 203.649Z" fill="#0CBC8B"/>
<path d="M401.378 203.649H372.937C372.824 203.649 372.715 203.604 372.635 203.524C372.555 203.443 372.51 203.334 372.51 203.221C372.51 203.107 372.555 202.998 372.635 202.918C372.715 202.837 372.824 202.792 372.937 202.792H401.378C401.491 202.792 401.6 202.837 401.68 202.918C401.76 202.998 401.805 203.107 401.805 203.221C401.805 203.334 401.76 203.443 401.68 203.524C401.6 203.604 401.491 203.649 401.378 203.649Z" fill="#353535"/>
<path d="M280.982 211.385H271.353C271.24 211.385 271.131 211.34 271.051 211.259C270.971 211.179 270.926 211.07 270.926 210.956C270.926 210.842 270.971 210.733 271.051 210.653C271.131 210.573 271.24 210.527 271.353 210.527H280.982C281.096 210.527 281.205 210.573 281.285 210.653C281.365 210.733 281.41 210.842 281.41 210.956C281.41 211.07 281.365 211.179 281.285 211.259C281.205 211.34 281.096 211.385 280.982 211.385Z" fill="#926BE6"/>
<path d="M355.876 211.385H290.239C290.126 211.385 290.017 211.34 289.937 211.259C289.857 211.179 289.812 211.07 289.812 210.956C289.812 210.842 289.857 210.733 289.937 210.653C290.017 210.573 290.126 210.527 290.239 210.527H355.876C355.989 210.527 356.098 210.573 356.178 210.653C356.258 210.733 356.303 210.842 356.303 210.956C356.303 211.07 356.258 211.179 356.178 211.259C356.098 211.34 355.989 211.385 355.876 211.385Z" fill="#0CBC8B"/>
<path d="M333.567 242.317H269.643C269.53 242.317 269.421 242.272 269.341 242.191C269.261 242.111 269.216 242.002 269.216 241.888C269.216 241.775 269.261 241.665 269.341 241.585C269.421 241.505 269.53 241.459 269.643 241.459H333.567C333.681 241.459 333.789 241.505 333.87 241.585C333.95 241.665 333.995 241.775 333.995 241.888C333.995 242.002 333.95 242.111 333.87 242.191C333.789 242.272 333.681 242.317 333.567 242.317Z" fill="#353535"/>
<path d="M379.816 242.317H342.824C342.71 242.317 342.601 242.272 342.521 242.191C342.441 242.111 342.396 242.002 342.396 241.888C342.396 241.775 342.441 241.665 342.521 241.585C342.601 241.505 342.71 241.459 342.824 241.459H379.816C379.929 241.459 380.038 241.505 380.118 241.585C380.198 241.665 380.243 241.775 380.243 241.888C380.243 242.002 380.198 242.111 380.118 242.191C380.038 242.272 379.929 242.317 379.816 242.317Z" fill="#926BE6"/>
<path d="M296.377 234.584H269.643C269.53 234.584 269.421 234.539 269.341 234.458C269.261 234.378 269.216 234.269 269.216 234.155C269.216 234.041 269.261 233.932 269.341 233.852C269.421 233.771 269.53 233.726 269.643 233.726H296.377C296.49 233.726 296.599 233.771 296.679 233.852C296.759 233.932 296.804 234.041 296.804 234.155C296.804 234.269 296.759 234.378 296.679 234.458C296.599 234.539 296.49 234.584 296.377 234.584Z" fill="#0CBC8B"/>
<path d="M354.164 234.584H305.629C305.516 234.584 305.407 234.539 305.327 234.458C305.247 234.378 305.202 234.269 305.202 234.155C305.202 234.041 305.247 233.932 305.327 233.852C305.407 233.771 305.516 233.726 305.629 233.726H354.164C354.277 233.726 354.386 233.771 354.466 233.852C354.546 233.932 354.591 234.041 354.591 234.155C354.591 234.269 354.546 234.378 354.466 234.458C354.386 234.539 354.277 234.584 354.164 234.584Z" fill="#926BE6"/>
<path d="M399.742 234.584H364.461C364.348 234.584 364.239 234.539 364.159 234.458C364.079 234.378 364.034 234.269 364.034 234.155C364.034 234.041 364.079 233.932 364.159 233.852C364.239 233.771 364.348 233.726 364.461 233.726H399.742C399.855 233.726 399.964 233.771 400.044 233.852C400.124 233.932 400.17 234.041 400.17 234.155C400.17 234.269 400.124 234.378 400.044 234.458C399.964 234.539 399.855 234.584 399.742 234.584Z" fill="#353535"/>
<path d="M359.219 257.783H269.643C269.53 257.783 269.421 257.737 269.341 257.657C269.261 257.577 269.216 257.468 269.216 257.354C269.216 257.24 269.261 257.131 269.341 257.051C269.421 256.97 269.53 256.925 269.643 256.925H359.219C359.333 256.925 359.442 256.97 359.522 257.051C359.602 257.131 359.647 257.24 359.647 257.354C359.647 257.468 359.602 257.577 359.522 257.657C359.442 257.737 359.333 257.783 359.219 257.783Z" fill="#926BE6"/>
<path d="M385.587 257.783H368.477C368.364 257.783 368.255 257.737 368.175 257.657C368.094 257.577 368.049 257.468 368.049 257.354C368.049 257.24 368.094 257.131 368.175 257.051C368.255 256.97 368.364 256.925 368.477 256.925H385.587C385.7 256.925 385.809 256.97 385.889 257.051C385.969 257.131 386.014 257.24 386.014 257.354C386.014 257.468 385.969 257.577 385.889 257.657C385.809 257.737 385.7 257.783 385.587 257.783Z" fill="#353535"/>
<path d="M279.272 250.05H269.644C269.586 250.052 269.529 250.042 269.475 250.022C269.421 250.001 269.372 249.97 269.331 249.93C269.29 249.89 269.257 249.842 269.234 249.789C269.212 249.736 269.2 249.679 269.2 249.621C269.2 249.563 269.212 249.506 269.234 249.453C269.257 249.4 269.29 249.352 269.331 249.312C269.372 249.272 269.421 249.241 269.475 249.221C269.529 249.2 269.586 249.19 269.644 249.193H279.272C279.329 249.19 279.387 249.2 279.44 249.221C279.494 249.241 279.543 249.272 279.584 249.312C279.626 249.352 279.659 249.4 279.681 249.453C279.704 249.506 279.715 249.563 279.715 249.621C279.715 249.679 279.704 249.736 279.681 249.789C279.659 249.842 279.626 249.89 279.584 249.93C279.543 249.97 279.494 250.001 279.44 250.022C279.387 250.042 279.329 250.052 279.272 250.05Z" fill="#926BE6"/>
<path d="M354.163 250.05H288.528C288.47 250.052 288.413 250.042 288.359 250.022C288.306 250.001 288.257 249.97 288.215 249.93C288.174 249.89 288.141 249.842 288.119 249.789C288.096 249.736 288.084 249.679 288.084 249.621C288.084 249.563 288.096 249.506 288.119 249.453C288.141 249.4 288.174 249.352 288.215 249.312C288.257 249.272 288.306 249.241 288.359 249.221C288.413 249.2 288.47 249.19 288.528 249.193H354.163C354.221 249.19 354.278 249.2 354.332 249.221C354.385 249.241 354.434 249.272 354.476 249.312C354.517 249.352 354.55 249.4 354.573 249.453C354.595 249.506 354.607 249.563 354.607 249.621C354.607 249.679 354.595 249.736 354.573 249.789C354.55 249.842 354.517 249.89 354.476 249.93C354.434 249.97 354.385 250.001 354.332 250.022C354.278 250.042 354.221 250.052 354.163 250.05Z" fill="#353535"/>
<path d="M399.742 250.05H364.461C364.404 250.052 364.347 250.042 364.293 250.022C364.239 250.001 364.19 249.97 364.149 249.93C364.108 249.89 364.075 249.842 364.052 249.789C364.03 249.736 364.018 249.679 364.018 249.621C364.018 249.563 364.03 249.506 364.052 249.453C364.075 249.4 364.108 249.352 364.149 249.312C364.19 249.272 364.239 249.241 364.293 249.221C364.347 249.2 364.404 249.19 364.461 249.193H399.742C399.799 249.19 399.857 249.2 399.91 249.221C399.964 249.241 400.013 249.272 400.054 249.312C400.096 249.352 400.129 249.4 400.151 249.453C400.174 249.506 400.185 249.563 400.185 249.621C400.185 249.679 400.174 249.736 400.151 249.789C400.129 249.842 400.096 249.89 400.054 249.93C400.013 249.97 399.964 250.001 399.91 250.022C399.857 250.042 399.799 250.052 399.742 250.05Z" fill="#0CBC8B"/>
<path d="M333.567 265.516H269.643C269.53 265.516 269.421 265.471 269.341 265.39C269.261 265.31 269.216 265.201 269.216 265.087C269.216 264.973 269.261 264.864 269.341 264.784C269.421 264.704 269.53 264.658 269.643 264.658H333.567C333.681 264.658 333.789 264.704 333.87 264.784C333.95 264.864 333.995 264.973 333.995 265.087C333.995 265.201 333.95 265.31 333.87 265.39C333.789 265.471 333.681 265.516 333.567 265.516Z" fill="#0CBC8B"/>
<path d="M362.714 265.516H342.825C342.711 265.516 342.602 265.471 342.522 265.39C342.442 265.31 342.397 265.201 342.397 265.087C342.397 264.973 342.442 264.864 342.522 264.784C342.602 264.704 342.711 264.658 342.825 264.658H362.714C362.828 264.658 362.937 264.704 363.017 264.784C363.097 264.864 363.142 264.973 363.142 265.087C363.142 265.201 363.097 265.31 363.017 265.39C362.937 265.471 362.828 265.516 362.714 265.516Z" fill="#353535"/>
<path d="M399.667 265.516H371.226C371.113 265.516 371.004 265.471 370.924 265.39C370.844 265.31 370.799 265.201 370.799 265.087C370.799 264.973 370.844 264.864 370.924 264.784C371.004 264.704 371.113 264.658 371.226 264.658H399.667C399.78 264.658 399.889 264.704 399.969 264.784C400.049 264.864 400.094 264.973 400.094 265.087C400.094 265.201 400.049 265.31 399.969 265.39C399.889 265.471 399.78 265.516 399.667 265.516H399.667Z" fill="#926BE6"/>
<path d="M240.438 269.74C240.382 269.74 240.326 269.729 240.274 269.707C240.222 269.686 240.175 269.654 240.136 269.615C240.096 269.575 240.064 269.528 240.043 269.476C240.021 269.424 240.01 269.368 240.01 269.312V151.489C240.01 151.375 240.055 151.266 240.136 151.186C240.216 151.105 240.324 151.06 240.438 151.06C240.551 151.06 240.66 151.105 240.74 151.186C240.82 151.266 240.866 151.375 240.866 151.489V269.312C240.866 269.368 240.854 269.424 240.833 269.476C240.811 269.528 240.78 269.575 240.74 269.615C240.701 269.654 240.653 269.686 240.601 269.707C240.55 269.729 240.494 269.74 240.438 269.74Z" fill="#353535"/>
<path d="M220.883 156.843H202.367C202.253 156.843 202.144 156.797 202.064 156.717C201.984 156.637 201.939 156.528 201.939 156.414C201.939 156.3 201.984 156.191 202.064 156.111C202.144 156.03 202.253 155.985 202.367 155.985H220.881C220.995 155.985 221.103 156.03 221.184 156.111C221.264 156.191 221.309 156.3 221.309 156.414C221.309 156.528 221.264 156.637 221.184 156.717C221.103 156.797 220.995 156.843 220.881 156.843H220.883Z" fill="#353535"/>
<path d="M215.306 165.297H202.367C202.309 165.299 202.252 165.29 202.198 165.269C202.145 165.249 202.096 165.218 202.054 165.178C202.013 165.138 201.98 165.09 201.957 165.037C201.935 164.984 201.923 164.926 201.923 164.869C201.923 164.811 201.935 164.754 201.957 164.701C201.98 164.648 202.013 164.6 202.054 164.56C202.096 164.52 202.145 164.489 202.198 164.468C202.252 164.448 202.309 164.438 202.367 164.44H215.304C215.415 164.444 215.52 164.491 215.596 164.571C215.673 164.651 215.716 164.758 215.716 164.869C215.716 164.98 215.673 165.086 215.596 165.166C215.52 165.246 215.415 165.293 215.304 165.297H215.306Z" fill="#353535"/>
<path d="M226.683 173.753H202.367C202.253 173.753 202.144 173.707 202.064 173.627C201.984 173.547 201.939 173.438 201.939 173.324C201.939 173.21 201.984 173.101 202.064 173.021C202.144 172.94 202.253 172.895 202.367 172.895H226.68C226.794 172.895 226.903 172.94 226.983 173.021C227.063 173.101 227.108 173.21 227.108 173.324C227.108 173.438 227.063 173.547 226.983 173.627C226.903 173.707 226.794 173.753 226.68 173.753H226.683Z" fill="#353535"/>
<path d="M231.218 182.207H210.92C210.862 182.209 210.805 182.2 210.751 182.179C210.698 182.159 210.649 182.127 210.607 182.087C210.566 182.047 210.533 182 210.511 181.946C210.488 181.893 210.477 181.836 210.477 181.779C210.477 181.721 210.488 181.664 210.511 181.611C210.533 181.558 210.566 181.51 210.607 181.47C210.649 181.43 210.698 181.399 210.751 181.378C210.805 181.358 210.862 181.348 210.92 181.35H231.218C231.276 181.348 231.333 181.358 231.387 181.378C231.44 181.399 231.489 181.43 231.531 181.47C231.572 181.51 231.605 181.558 231.628 181.611C231.65 181.664 231.662 181.721 231.662 181.779C231.662 181.836 231.65 181.893 231.628 181.946C231.605 182 231.572 182.047 231.531 182.087C231.489 182.127 231.44 182.159 231.387 182.179C231.333 182.2 231.276 182.209 231.218 182.207Z" fill="#353535"/>
<path d="M221.403 190.663H210.92C210.806 190.663 210.698 190.617 210.617 190.537C210.537 190.457 210.492 190.347 210.492 190.234C210.492 190.12 210.537 190.011 210.617 189.931C210.698 189.85 210.806 189.805 210.92 189.805H221.403C221.517 189.805 221.626 189.85 221.706 189.931C221.786 190.011 221.831 190.12 221.831 190.234C221.831 190.347 221.786 190.457 221.706 190.537C221.626 190.617 221.517 190.663 221.403 190.663Z" fill="#353535"/>
<path d="M229.433 199.118H210.92C210.806 199.118 210.698 199.073 210.617 198.992C210.537 198.912 210.492 198.803 210.492 198.689C210.492 198.575 210.537 198.466 210.617 198.386C210.698 198.305 210.806 198.26 210.92 198.26H229.433C229.546 198.26 229.655 198.305 229.735 198.386C229.815 198.466 229.86 198.575 229.86 198.689C229.86 198.803 229.815 198.912 229.735 198.992C229.655 199.073 229.546 199.118 229.433 199.118Z" fill="#353535"/>
<path d="M216.645 207.572H202.367C202.253 207.572 202.144 207.527 202.064 207.447C201.984 207.366 201.939 207.257 201.939 207.144C201.939 207.03 201.984 206.921 202.064 206.841C202.144 206.76 202.253 206.715 202.367 206.715H216.642C216.756 206.715 216.865 206.76 216.945 206.841C217.025 206.921 217.07 207.03 217.07 207.144C217.07 207.257 217.025 207.366 216.945 207.447C216.865 207.527 216.756 207.572 216.642 207.572H216.645Z" fill="#353535"/>
<path d="M211.737 216.028H202.367C202.253 216.028 202.144 215.983 202.064 215.902C201.984 215.822 201.939 215.713 201.939 215.599C201.939 215.485 201.984 215.376 202.064 215.296C202.144 215.215 202.253 215.17 202.367 215.17H211.735C211.848 215.17 211.957 215.215 212.037 215.296C212.117 215.376 212.162 215.485 212.162 215.599C212.162 215.713 212.117 215.822 212.037 215.902C211.957 215.983 211.848 216.028 211.735 216.028H211.737Z" fill="#353535"/>
<path d="M249.291 155.029V155.184L254.636 157.172C254.712 157.204 254.777 157.257 254.823 157.326C254.869 157.395 254.893 157.476 254.892 157.558V157.704C254.893 157.769 254.878 157.833 254.848 157.89C254.817 157.947 254.773 157.995 254.719 158.03C254.665 158.068 254.602 158.092 254.536 158.1C254.47 158.107 254.404 158.098 254.343 158.073L248.306 155.706C248.231 155.676 248.166 155.624 248.12 155.557C248.074 155.49 248.05 155.41 248.049 155.329V154.892C248.049 154.81 248.073 154.731 248.119 154.663C248.165 154.596 248.23 154.544 248.306 154.515L254.343 152.143C254.392 152.126 254.444 152.117 254.496 152.117C254.575 152.118 254.652 152.142 254.719 152.185C254.773 152.222 254.818 152.272 254.848 152.33C254.878 152.389 254.893 152.454 254.892 152.52V152.665C254.894 152.747 254.87 152.827 254.824 152.895C254.778 152.962 254.712 153.014 254.636 153.042L249.291 155.029Z" fill="#926BE6"/>
<path d="M259.885 150.391L256.688 160.207C256.662 160.289 256.611 160.361 256.541 160.412C256.472 160.463 256.389 160.49 256.303 160.49C256.241 160.491 256.179 160.477 256.124 160.448C256.069 160.42 256.021 160.378 255.986 160.327C255.948 160.276 255.922 160.217 255.91 160.155C255.898 160.093 255.901 160.028 255.918 159.967L259.116 150.16C259.143 150.077 259.196 150.004 259.267 149.952C259.337 149.9 259.422 149.872 259.509 149.87C259.571 149.87 259.632 149.885 259.687 149.913C259.742 149.942 259.79 149.983 259.825 150.034C259.863 150.084 259.889 150.143 259.899 150.205C259.909 150.267 259.905 150.331 259.885 150.391Z" fill="#926BE6"/>
<path d="M267.738 154.892V155.329C267.74 155.41 267.717 155.489 267.673 155.556C267.628 155.623 267.565 155.676 267.491 155.706L261.445 158.073C261.385 158.098 261.32 158.107 261.256 158.099C261.191 158.092 261.13 158.068 261.078 158.03C261.023 157.995 260.978 157.947 260.947 157.89C260.915 157.833 260.899 157.769 260.898 157.704V157.558C260.897 157.474 260.922 157.392 260.969 157.323C261.017 157.254 261.085 157.201 261.164 157.172L266.507 155.184V155.029L261.164 153.04C261.085 153.014 261.017 152.963 260.969 152.895C260.921 152.827 260.896 152.746 260.898 152.663V152.518C260.898 152.451 260.915 152.386 260.946 152.328C260.978 152.27 261.023 152.22 261.078 152.183C261.144 152.14 261.221 152.116 261.3 152.114C261.349 152.114 261.399 152.122 261.445 152.14L267.491 154.513C267.566 154.542 267.63 154.595 267.675 154.663C267.719 154.731 267.741 154.811 267.738 154.892Z" fill="#926BE6"/>
<path d="M170.373 428.598C166.887 428.597 163.452 427.752 160.362 426.134C157.271 424.517 154.616 422.175 152.622 419.307C150.629 416.439 149.356 413.131 148.912 409.664C148.468 406.197 148.865 402.674 150.071 399.394C151.295 396.064 182.692 314.805 188.16 300.683L225.943 322.728C222.87 330.669 211.736 360.769 202.791 385.016L217.652 383.396L222.326 423.066L172.715 428.471C171.937 428.555 171.155 428.598 170.373 428.598Z" fill="#B89BF6"/>
<path d="M280.428 269.304C268.511 270.247 253.203 265.202 250.295 249.261L247.672 234.878C244.764 218.938 250.757 204.484 265.727 201.739C280.697 198.994 294.244 209.864 297.151 225.805L298.313 232.173C299.428 238.289 301.69 267.623 280.428 269.304Z" fill="#E98862"/>
<path d="M224.019 282.676C213.31 283.472 202.391 284.635 194.511 291.949C185.021 300.758 183.301 311.589 189.356 341.396C194.565 367.043 192.498 378.25 195.983 425.576C196.086 426.969 196.306 429.853 196.306 429.853L310.861 429.663C310.861 429.663 321.595 366.874 327.521 337.914C332.028 315.897 343.865 289.169 293.954 283.783C293.825 283.768 253.797 280.461 224.019 282.676Z" fill="#B89BF7"/>
<path d="M196.308 430.143C196.233 430.143 196.162 430.114 196.108 430.062C196.054 430.01 196.022 429.94 196.02 429.865L192.429 336.433C192.428 336.395 192.434 336.358 192.447 336.322C192.46 336.286 192.48 336.253 192.506 336.226C192.532 336.198 192.563 336.175 192.597 336.159C192.632 336.143 192.669 336.135 192.707 336.133C192.745 336.13 192.784 336.135 192.82 336.148C192.856 336.16 192.889 336.18 192.918 336.206C192.946 336.233 192.968 336.264 192.983 336.3C192.999 336.335 193.007 336.373 193.007 336.411L196.597 429.843C196.599 429.919 196.572 429.994 196.52 430.05C196.468 430.107 196.396 430.14 196.319 430.143L196.308 430.143Z" fill="#646464"/>
<path d="M380.125 316.035L388.173 297.934C388.35 297.537 388.608 297.18 388.929 296.888C389.251 296.595 389.63 296.373 390.042 296.236C390.454 296.098 390.89 296.048 391.323 296.089C391.755 296.13 392.174 296.26 392.554 296.472C393.242 296.886 393.753 297.541 393.987 298.311C394.222 299.08 394.162 299.91 393.82 300.638L392.095 304.52L403.109 294.812C404.315 293.712 406.497 293.134 407.64 294.571C408.115 295.095 408.4 295.766 408.446 296.473C408.493 297.181 408.299 297.883 407.896 298.466C407.91 298.474 407.922 298.484 407.933 298.496C407.94 298.506 407.946 298.516 407.951 298.527L409.811 296.83C410.155 296.516 410.565 296.282 411.011 296.147C411.457 296.012 411.927 295.979 412.388 296.049C412.848 296.119 413.287 296.291 413.673 296.553C414.058 296.815 414.381 297.16 414.617 297.562C414.976 298.204 415.104 298.95 414.98 299.675C414.856 300.4 414.487 301.06 413.936 301.545L413.145 302.268C413.155 302.3 413.159 302.334 413.157 302.368C413.805 302.005 414.56 301.884 415.289 302.028C416.017 302.171 416.67 302.57 417.132 303.152C417.619 303.804 417.843 304.617 417.759 305.427C417.674 306.237 417.289 306.986 416.678 307.523L414.713 309.317C414.759 309.311 414.805 309.316 414.848 309.332C414.891 309.348 414.93 309.374 414.961 309.408C414.996 309.45 415.019 309.501 415.025 309.555C415.691 309.392 416.393 309.453 417.021 309.728C417.65 310.003 418.171 310.478 418.504 311.079C418.842 311.718 418.954 312.452 418.823 313.163C418.692 313.874 418.326 314.519 417.783 314.995L401.2 330.132C398.88 332.25 395.982 333.625 392.878 334.08C389.774 334.536 386.604 334.052 383.776 332.689C381.338 331.515 379.452 329.434 378.52 326.887C377.588 324.341 377.682 321.531 378.784 319.054L380.125 316.035Z" fill="#E98862"/>
<g opacity="0.2">
<path d="M397.039 308.127C397.09 308.183 397.161 308.216 397.237 308.22C397.312 308.224 397.386 308.198 397.443 308.147L407.906 298.902C407.964 298.851 407.999 298.779 408.004 298.703C408.008 298.626 407.983 298.551 407.932 298.493C407.881 298.435 407.81 298.4 407.733 298.396C407.657 298.391 407.582 298.417 407.524 298.467L397.061 307.713C397.033 307.738 397.01 307.769 396.993 307.803C396.976 307.837 396.966 307.874 396.964 307.912C396.962 307.95 396.967 307.988 396.979 308.024C396.991 308.06 397.01 308.093 397.035 308.121L397.039 308.127Z" fill="#646464"/>
</g>
<g opacity="0.2">
<path d="M400.979 312.865C401.03 312.921 401.101 312.955 401.176 312.959C401.252 312.963 401.326 312.937 401.383 312.886L413.06 302.568C413.088 302.543 413.111 302.513 413.128 302.479C413.145 302.445 413.154 302.407 413.157 302.37C413.159 302.332 413.154 302.294 413.142 302.258C413.129 302.222 413.11 302.188 413.085 302.16C413.033 302.105 412.962 302.071 412.886 302.066C412.811 302.061 412.736 302.086 412.678 302.134L401.001 312.452C400.972 312.477 400.949 312.508 400.932 312.542C400.916 312.576 400.906 312.613 400.903 312.651C400.901 312.689 400.906 312.727 400.918 312.763C400.931 312.799 400.95 312.832 400.975 312.861L400.979 312.865Z" fill="#646464"/>
</g>
<g opacity="0.2">
<path d="M405.216 318.023C405.268 318.079 405.339 318.113 405.414 318.116C405.49 318.12 405.564 318.094 405.62 318.044L414.935 309.813C414.992 309.762 415.027 309.691 415.032 309.614C415.037 309.538 415.011 309.462 414.96 309.405C414.91 309.347 414.838 309.312 414.762 309.307C414.685 309.303 414.61 309.329 414.553 309.379L405.238 317.61C405.21 317.635 405.187 317.666 405.17 317.7C405.153 317.734 405.144 317.771 405.141 317.809C405.139 317.847 405.144 317.885 405.156 317.921C405.169 317.957 405.188 317.99 405.213 318.019L405.216 318.023Z" fill="#646464"/>
</g>
<path d="M291.475 252.966C289.423 242.628 288.482 235.73 288.59 228.453C291.48 223.37 290.72 217.536 290.063 215.014C290.891 215.487 291.758 215.889 292.653 216.216C293.07 216.362 293.519 216.385 293.948 216.283C294.377 216.181 294.769 215.958 295.076 215.641C295.383 215.324 295.594 214.925 295.683 214.492C295.772 214.059 295.736 213.61 295.579 213.197C293.343 207.39 287.593 196.106 275.724 192.324C272.736 191.158 265.105 189.686 254.979 191.079C246.364 192.264 226.859 200.458 223.825 224.428V224.441C223.724 225.236 219.954 245.586 215.889 256.183C210.425 270.428 202.752 274.854 202.946 291.289C203.197 312.43 241.959 315.244 265.343 313.663C288.727 312.082 301.776 304.373 301.945 289.138C302.129 272.065 295.579 273.651 291.475 252.966Z" fill="#DEA34A"/>
<path d="M291.482 245.635C286.933 246.47 282.355 242.266 281.523 237.705C280.692 233.144 282.765 228.453 288.589 228.453L291.482 245.635Z" fill="#E98862"/>
<path d="M340.415 425.316C335.839 425.315 331.381 423.861 327.681 421.162C323.98 418.463 321.228 414.658 319.819 410.293L289.751 317.058L330.934 303.707L346.747 352.746L374.074 309.174L410.717 332.275L358.731 415.167C356.783 418.273 354.081 420.833 350.878 422.608C347.675 424.383 344.075 425.315 340.415 425.316Z" fill="#B89BF6"/>
<path d="M316.153 399.571C316.135 399.571 316.117 399.57 316.099 399.566C316.024 399.552 315.958 399.509 315.914 399.446C315.871 399.382 315.855 399.305 315.869 399.229L326.09 343.601C326.097 343.563 326.111 343.528 326.131 343.496C326.152 343.464 326.179 343.436 326.21 343.415C326.241 343.393 326.276 343.378 326.313 343.37C326.35 343.362 326.389 343.362 326.426 343.368C326.463 343.375 326.499 343.389 326.531 343.41C326.562 343.431 326.59 343.458 326.611 343.489C326.633 343.52 326.648 343.555 326.656 343.593C326.664 343.63 326.664 343.668 326.658 343.705L316.436 399.336C316.423 399.402 316.388 399.462 316.336 399.505C316.285 399.548 316.22 399.571 316.153 399.571Z" fill="#646464"/>
<path d="M350.425 365.876C350.361 365.876 350.299 365.854 350.248 365.815C350.198 365.776 350.162 365.721 350.146 365.659L346.741 352.51C346.721 352.435 346.732 352.356 346.771 352.29C346.81 352.224 346.874 352.176 346.948 352.157C347.022 352.138 347.1 352.149 347.166 352.188C347.232 352.227 347.28 352.29 347.299 352.364L350.704 365.514C350.715 365.557 350.716 365.601 350.707 365.645C350.699 365.688 350.68 365.729 350.653 365.764C350.626 365.799 350.591 365.827 350.552 365.846C350.512 365.866 350.468 365.876 350.424 365.876H350.425Z" fill="#646464"/>
<path d="M328.244 430.143H194.121L185.597 364.482C185.426 363.165 185.538 361.826 185.924 360.555C186.31 359.284 186.962 358.11 187.836 357.112C188.711 356.113 189.787 355.314 190.995 354.766C192.202 354.218 193.512 353.934 194.837 353.934H310.159C312.423 353.934 314.609 354.759 316.31 356.256C318.011 357.753 319.111 359.82 319.404 362.07L328.244 430.143Z" fill="white"/>
<path d="M320.103 361.983C319.784 359.563 318.6 357.341 316.772 355.73C314.943 354.119 312.593 353.228 310.159 353.222H194.837C193.57 353.224 192.315 353.465 191.138 353.934C190.64 354.131 190.159 354.369 189.701 354.646C188.02 355.65 186.67 357.125 185.816 358.889C184.962 360.654 184.641 362.63 184.893 364.575L193.411 430.143H194.837L186.301 364.396C186.143 363.179 186.246 361.941 186.602 360.767C186.959 359.592 187.561 358.507 188.369 357.584C189.176 356.662 190.171 355.922 191.286 355.416C192.402 354.909 193.612 354.646 194.837 354.646H310.159C312.249 354.651 314.265 355.416 315.836 356.798C317.406 358.18 318.424 360.085 318.7 362.162L327.53 430.143H328.961L320.103 361.983Z" fill="#353535"/>
<path d="M320.42 430.143H186.295L177.772 364.482C177.6 363.165 177.711 361.826 178.097 360.554C178.483 359.283 179.135 358.109 180.01 357.111C180.884 356.113 181.961 355.313 183.168 354.765C184.376 354.217 185.686 353.934 187.011 353.934H302.331C304.594 353.934 306.78 354.76 308.48 356.257C310.18 357.754 311.279 359.82 311.571 362.07L320.42 430.143Z" fill="#353535"/>
<path d="M312.277 361.983C312.08 360.475 311.545 359.031 310.711 357.76C309.877 356.489 308.767 355.425 307.464 354.646C307.005 354.37 306.525 354.132 306.027 353.934C304.852 353.465 303.599 353.223 302.334 353.222H187.011C185.585 353.222 184.175 353.526 182.875 354.116C181.576 354.705 180.417 355.566 179.475 356.641C178.534 357.715 177.833 358.979 177.417 360.347C177.002 361.715 176.883 363.157 177.068 364.575L185.58 430.143H187.011L178.476 364.396C178.318 363.179 178.42 361.941 178.777 360.767C179.133 359.592 179.735 358.507 180.543 357.584C181.351 356.662 182.346 355.922 183.461 355.416C184.576 354.909 185.787 354.646 187.011 354.646H302.332C304.421 354.651 306.438 355.416 308.008 356.798C309.579 358.18 310.597 360.085 310.873 362.162L319.703 430.143H321.134L312.277 361.983Z" fill="#353535"/>
<path d="M26.8991 430.549H554.035C554.142 430.549 554.245 430.507 554.32 430.431C554.396 430.355 554.439 430.252 554.439 430.144C554.439 430.037 554.396 429.934 554.32 429.858C554.245 429.782 554.142 429.739 554.035 429.739H26.8991C26.7919 429.739 26.6892 429.782 26.6134 429.858C26.5377 429.934 26.4951 430.037 26.4951 430.144C26.4951 430.252 26.5377 430.355 26.6134 430.431C26.6892 430.507 26.7919 430.549 26.8991 430.549Z" fill="#353535"/>
<g opacity="0.65">
<path d="M26.8991 430.549H554.035C554.142 430.549 554.245 430.507 554.32 430.431C554.396 430.355 554.439 430.252 554.439 430.144C554.439 430.037 554.396 429.934 554.32 429.858C554.245 429.782 554.142 429.739 554.035 429.739H26.8991C26.7919 429.739 26.6892 429.782 26.6134 429.858C26.5377 429.934 26.4951 430.037 26.4951 430.144C26.4951 430.252 26.5377 430.355 26.6134 430.431C26.6892 430.507 26.7919 430.549 26.8991 430.549Z" fill="#353535"/>
</g>
</g>
<path d="M493.168 125L482.538 114.371C481.513 113.345 481 112.04 481 110.455C481 108.869 481.513 107.564 482.538 106.538C483.564 105.513 484.869 105 486.455 105C488.04 105 489.345 105.513 490.371 106.538L501 117.168L511.629 106.538C512.655 105.513 513.96 105 515.545 105C517.131 105 518.436 105.513 519.462 106.538C520.487 107.564 521 108.869 521 110.455C521 112.04 520.487 113.345 519.462 114.371L508.832 125L519.462 135.629C520.487 136.655 521 137.96 521 139.545C521 141.131 520.487 142.436 519.462 143.462C518.436 144.487 517.131 145 515.545 145C513.96 145 512.655 144.487 511.629 143.462L501 132.832L490.371 143.462C489.345 144.487 488.04 145 486.455 145C484.869 145 483.564 144.487 482.538 143.462C481.513 142.436 481 141.131 481 139.545C481 137.96 481.513 136.655 482.538 135.629L493.168 125Z" fill="#59009F"/>
<path fill-rule="evenodd" clip-rule="evenodd" d="M379.124 496.875L370.542 506.753L395.23 528.21L405.101 536.792L413.684 526.914L423.758 515.336L438.568 528.21L448.446 536.792L457.022 526.914L467.083 515.342L481.887 528.21L491.765 536.792L500.341 526.914L513.222 512.104L503.344 503.521L490.47 518.332L465.782 496.875L457.199 506.753H457.212L447.151 518.332L422.463 496.875L416.686 503.521L403.812 518.332L379.124 496.875Z" fill="white"/>
<defs>
<clipPath id="clip0_57_1137">
<rect width="536.75" height="342.275" fill="white" transform="translate(20.0029 88.9026)"/>
</clipPath>
</defs>
</svg>
