<svg width="700" height="595" viewBox="0 0 700 595" fill="none" xmlns="http://www.w3.org/2000/svg">
<path d="M644.984 568.194H586.817V594.109H644.984V568.194Z" fill="#292A2E"/>
<path opacity="0.2" d="M644.984 568.194H586.817V594.109H644.984V568.194Z" fill="white"/>
<path d="M53.5051 543.392L46.083 594.109H190.24L181.936 542.427L53.5051 543.392Z" fill="#262626"/>
<path d="M14.775 595H663.607C663.779 595 663.944 594.906 664.065 594.739C664.187 594.572 664.256 594.345 664.256 594.109C664.256 593.873 664.187 593.646 664.065 593.479C663.944 593.312 663.779 593.218 663.607 593.218H14.775C14.6029 593.218 14.4378 593.312 14.3161 593.479C14.1944 593.646 14.126 593.873 14.126 594.109C14.126 594.345 14.1944 594.572 14.3161 594.739C14.4378 594.906 14.6029 595 14.775 595Z" fill="#292A2E"/>
<path d="M262.341 417.092H96.7854C96.7222 417.101 96.6584 417.091 96.5981 417.064C96.5378 417.037 96.4823 416.993 96.4352 416.934C96.3881 416.876 96.3505 416.804 96.3247 416.725C96.299 416.645 96.2856 416.559 96.2856 416.472C96.2856 416.384 96.299 416.298 96.3247 416.219C96.3505 416.139 96.3881 416.068 96.4352 416.009C96.4823 415.951 96.5378 415.906 96.5981 415.879C96.6584 415.852 96.7222 415.842 96.7854 415.851H262.341C262.453 415.866 262.557 415.939 262.633 416.053C262.708 416.168 262.75 416.317 262.75 416.472C262.75 416.626 262.708 416.775 262.633 416.89C262.557 417.005 262.453 417.077 262.341 417.092Z" fill="#292A2E"/>
<path d="M590.235 387.329L588.944 387.523L604.879 587.427L606.169 587.233L590.235 387.329Z" fill="#292A2E"/>
<path d="M631.505 474.598L623.666 581.063L624.958 581.242L632.797 474.778L631.505 474.598Z" fill="#292A2E"/>
<path d="M680.049 520.477C691.067 500.372 685.814 469.421 668.315 451.346C650.817 433.271 627.699 434.917 616.68 455.022C605.661 475.126 610.914 506.077 628.413 524.152C645.912 542.227 669.03 540.582 680.049 520.477Z" fill="#0CBC8B"/>
<path opacity="0.2" d="M680.049 520.477C691.067 500.372 685.814 469.421 668.315 451.346C650.817 433.271 627.699 434.917 616.68 455.022C605.661 475.126 610.914 506.077 628.413 524.152C645.912 542.227 669.03 540.582 680.049 520.477Z" fill="white"/>
<path opacity="0.5" d="M680.048 520.481C679.307 521.837 678.5 523.121 677.631 524.325C665.501 534.963 647.598 533.288 633.395 518.615C615.898 500.543 610.646 469.592 621.666 449.488C622.407 448.136 623.213 446.851 624.077 445.644C636.214 434.998 654.11 436.68 668.319 451.347C685.816 469.425 691.067 500.376 680.048 520.481Z" fill="white"/>
<path d="M598.877 444.203C616.212 425.833 620.923 394.328 609.4 373.834C597.877 353.34 574.483 351.619 557.148 369.989C539.813 388.359 535.102 419.865 546.625 440.358C558.148 460.852 581.542 462.573 598.877 444.203Z" fill="#0CBC8B"/>
<path opacity="0.2" d="M593.382 438.929C579.957 453.165 562.896 455.334 550.529 446.067C549.098 444.336 547.79 442.421 546.625 440.349C535.1 419.861 539.81 388.353 557.145 369.986C570.57 355.759 587.631 353.582 599.993 362.841C601.427 364.572 602.737 366.489 603.902 368.567C615.428 389.054 610.717 420.563 593.382 438.929Z" fill="white"/>
<path d="M68.1221 231.542C102.992 231.542 131.26 192.735 131.26 144.865C131.26 96.9938 102.992 58.1869 68.1221 58.1869C33.2521 58.1869 4.98438 96.9938 4.98438 144.865C4.98438 192.735 33.2521 231.542 68.1221 231.542Z" fill="#F4F4F4"/>
<g opacity="0.05">
<path d="M68.1219 213.579C95.7652 213.579 118.175 182.814 118.175 144.865C118.175 106.915 95.7652 76.1506 68.1219 76.1506C40.4787 76.1506 18.0693 106.915 18.0693 144.865C18.0693 182.814 40.4787 213.579 68.1219 213.579Z" fill="#292A2E"/>
</g>
<path d="M624.742 173.355C659.612 173.355 687.879 134.549 687.879 86.6777C687.879 38.807 659.612 0 624.742 0C589.872 0 561.604 38.807 561.604 86.6777C561.604 134.549 589.872 173.355 624.742 173.355Z" fill="#F4F4F4"/>
<g opacity="0.05">
<path d="M624.742 155.392C652.385 155.392 674.795 124.627 674.795 86.6777C674.795 48.7281 652.385 17.9637 624.742 17.9637C597.099 17.9637 574.689 48.7281 574.689 86.6777C574.689 124.627 597.099 155.392 624.742 155.392Z" fill="#292A2E"/>
</g>
<path d="M570.853 44.61H132.937C122.183 44.61 113.465 56.5782 113.465 71.3418V511.503C113.465 526.266 122.183 538.234 132.937 538.234H570.853C581.607 538.234 590.325 526.266 590.325 511.503V71.3418C590.325 56.5782 581.607 44.61 570.853 44.61Z" fill="white"/>
<path d="M570.852 539.124H132.937C127.602 539.116 122.488 536.203 118.716 531.025C114.944 525.846 112.822 518.825 112.816 511.502V71.3417C112.822 64.0182 114.944 56.997 118.716 51.8185C122.488 46.64 127.602 43.7271 132.937 43.7189H570.852C576.186 43.7269 581.301 46.6397 585.073 51.8183C588.845 56.9968 590.967 64.0181 590.973 71.3417V511.502C590.967 518.825 588.845 525.846 585.073 531.025C581.301 536.203 576.186 539.116 570.852 539.124ZM132.937 45.501C127.946 45.5085 123.162 48.2335 119.633 53.0779C116.104 57.9223 114.12 64.4906 114.114 71.3417V511.502C114.12 518.353 116.104 524.921 119.633 529.765C123.162 534.61 127.946 537.335 132.937 537.342H570.852C575.842 537.335 580.627 534.61 584.155 529.765C587.684 524.921 589.669 518.353 589.674 511.502V71.3417C589.669 64.4906 587.684 57.9223 584.155 53.0779C580.627 48.2335 575.842 45.5085 570.852 45.501H132.937Z" fill="#292A2E"/>
<path d="M198.584 285.871C198.328 285.871 198.075 285.802 197.839 285.667C197.602 285.533 197.388 285.336 197.207 285.087L188.12 272.612C187.766 272.108 187.569 271.433 187.574 270.732C187.578 270.031 187.783 269.361 188.144 268.865C188.505 268.369 188.993 268.088 189.504 268.082C190.015 268.076 190.506 268.346 190.874 268.833L199.961 281.307C200.233 281.681 200.418 282.157 200.493 282.676C200.568 283.194 200.53 283.732 200.382 284.22C200.235 284.709 199.986 285.126 199.665 285.42C199.345 285.714 198.969 285.87 198.584 285.871Z" fill="#0CBC8B"/>
<path d="M189.497 285.871C189.112 285.87 188.735 285.714 188.415 285.42C188.095 285.126 187.845 284.709 187.698 284.22C187.551 283.732 187.512 283.194 187.587 282.676C187.662 282.157 187.848 281.681 188.12 281.307L197.207 268.833C197.574 268.346 198.066 268.076 198.576 268.082C199.087 268.088 199.575 268.369 199.936 268.865C200.297 269.361 200.502 270.031 200.507 270.732C200.511 271.433 200.315 272.108 199.96 272.612L190.873 285.087C190.693 285.336 190.478 285.533 190.242 285.668C190.006 285.802 189.752 285.871 189.497 285.871Z" fill="#0CBC8B"/>
<path d="M458.76 405.103L456.167 413.271L472.129 422.825L474.723 414.657L458.76 405.103Z" fill="#0CBC8B"/>
<path d="M463.799 186.117L448.786 198.228L452.074 205.911L467.088 193.799L463.799 186.117Z" fill="#0CBC8B"/>
<path d="M213.618 206.858L211.607 215.33L228.165 222.736L230.175 214.264L213.618 206.858Z" fill="#0CBC8B"/>
<path d="M233.002 348.956L218.74 362.655L222.459 369.952L236.721 356.254L233.002 348.956Z" fill="#0CBC8B"/>
<path d="M494.584 317.556L493.988 326.429L510.949 328.576L511.545 319.703L494.584 317.556Z" fill="#0CBC8B"/>
<path d="M511.857 253.731C511.602 253.731 511.348 253.662 511.112 253.528C510.876 253.394 510.661 253.196 510.481 252.948L501.394 240.473C501.208 240.226 501.059 239.931 500.957 239.605C500.855 239.279 500.802 238.928 500.799 238.573C500.797 238.218 500.846 237.866 500.944 237.538C501.042 237.209 501.187 236.911 501.37 236.66C501.552 236.409 501.77 236.21 502.009 236.076C502.248 235.941 502.505 235.874 502.763 235.877C503.022 235.88 503.277 235.954 503.515 236.094C503.753 236.234 503.967 236.438 504.147 236.693L513.234 249.168C513.506 249.542 513.692 250.018 513.767 250.536C513.842 251.055 513.803 251.592 513.656 252.081C513.509 252.569 513.259 252.986 512.939 253.28C512.619 253.574 512.242 253.731 511.857 253.731Z" fill="#0CBC8B"/>
<path d="M502.771 253.731C502.385 253.731 502.009 253.574 501.689 253.28C501.369 252.986 501.119 252.569 500.972 252.081C500.825 251.592 500.786 251.055 500.861 250.536C500.936 250.018 501.122 249.542 501.394 249.168L510.481 236.693C510.66 236.438 510.875 236.234 511.113 236.094C511.35 235.954 511.606 235.88 511.864 235.877C512.123 235.874 512.379 235.941 512.619 236.076C512.858 236.21 513.075 236.409 513.258 236.66C513.441 236.911 513.586 237.209 513.684 237.538C513.781 237.866 513.831 238.218 513.828 238.573C513.826 238.928 513.772 239.279 513.67 239.605C513.568 239.931 513.42 240.226 513.234 240.473L504.147 252.948C503.967 253.196 503.752 253.393 503.516 253.528C503.28 253.662 503.026 253.731 502.771 253.731Z" fill="#0CBC8B"/>
<path opacity="0.4" d="M351.895 446.5C409.081 446.5 455.439 382.857 455.439 304.35C455.439 225.843 409.081 162.201 351.895 162.201C294.709 162.201 248.35 225.843 248.35 304.35C248.35 382.857 294.709 446.5 351.895 446.5Z" fill="#0CBC8B"/>
<path d="M351.895 403.763C391.888 403.763 424.309 359.254 424.309 304.35C424.309 249.446 391.888 204.937 351.895 204.937C311.901 204.937 279.48 249.446 279.48 304.35C279.48 359.254 311.901 403.763 351.895 403.763Z" fill="#0CBC8B"/>
<path d="M337.088 346.999C336.519 346.999 335.957 346.842 335.434 346.535C334.911 346.229 334.438 345.78 334.045 345.217L310.996 312.286C310.605 311.739 310.297 311.092 310.089 310.381C309.882 309.67 309.779 308.909 309.787 308.143C309.795 307.377 309.914 306.621 310.136 305.919C310.358 305.216 310.68 304.581 311.082 304.05C311.485 303.519 311.96 303.104 312.48 302.827C313 302.55 313.555 302.417 314.113 302.436C314.671 302.456 315.22 302.627 315.729 302.94C316.239 303.253 316.698 303.702 317.08 304.26L337.305 333.155L390.18 268.037C390.591 267.521 391.073 267.122 391.598 266.862C392.122 266.603 392.679 266.489 393.236 266.527C393.792 266.565 394.338 266.753 394.841 267.083C395.344 267.412 395.795 267.874 396.167 268.444C396.54 269.013 396.826 269.679 397.01 270.401C397.194 271.123 397.272 271.889 397.239 272.653C397.206 273.417 397.063 274.164 396.819 274.852C396.574 275.539 396.233 276.154 395.815 276.659L339.905 345.515C339.132 346.471 338.128 346.999 337.088 346.999Z" fill="white"/>
<path d="M590.323 71.3382V98.2366H113.467V71.3382C113.467 64.2485 115.518 57.4492 119.17 52.436C122.822 47.4228 127.774 44.6064 132.939 44.6064H570.851C576.016 44.6064 580.968 47.4228 584.62 52.436C588.272 57.4492 590.323 64.2485 590.323 71.3382Z" fill="#292A2E"/>
<path d="M24.3361 541.458C20.415 541.457 16.552 540.156 13.076 537.665C9.60005 535.174 6.61392 531.566 4.37179 527.15C2.12965 522.734 0.69788 517.64 0.198335 512.3C-0.30121 506.961 0.146257 501.535 1.50265 496.485C2.87932 491.356 38.191 366.218 44.3409 344.47L86.8358 378.419C83.3795 390.649 70.8565 437.002 60.796 474.343L77.5101 471.848L82.7707 532.939L26.9732 541.267C26.0973 541.396 25.217 541.46 24.3361 541.458Z" fill="#B89BF6"/>
<path d="M163.33 318.447C163.181 318.42 159.092 339.547 127.177 336.259C105.083 333.987 99.6957 313.341 99.1895 313.341C101.572 312.646 105.44 311.924 106.498 311.149C109.977 308.583 112.511 305.458 113.787 298.754C114.785 293.511 115.293 273.328 115.293 263.201L149.291 273.689C148.817 285.112 145.5 311.594 157.125 316.281C159.059 317.057 161.143 317.769 163.33 318.447Z" fill="#E98862"/>
<path d="M148.115 296.147C134.713 297.599 117.496 289.83 114.225 265.282L111.275 243.132C108.004 218.583 114.745 196.324 131.582 192.097C148.418 187.87 163.654 204.61 166.924 229.159L168.231 238.966C169.483 248.384 172.027 293.558 148.115 296.147Z" fill="#E98862"/>
<path d="M84.6739 316.739C72.6298 317.966 60.3489 319.757 51.4865 331.02C40.8133 344.586 38.8791 361.266 45.6885 407.168C51.5469 446.664 49.2233 463.923 53.1423 536.804C53.2578 538.952 53.5051 543.392 53.5051 543.392L182.344 543.099C182.344 543.099 194.417 446.404 201.082 401.805C206.151 367.9 219.464 326.739 163.33 318.444C163.182 318.422 118.161 313.328 84.6739 316.739Z" fill="#B89BF7"/>
<path d="M53.5052 543.838C53.4212 543.838 53.3405 543.794 53.2799 543.714C53.2194 543.634 53.1838 543.525 53.1806 543.41L49.1428 399.526C49.1396 399.408 49.1708 399.293 49.2293 399.206C49.2878 399.12 49.369 399.069 49.455 399.064C49.498 399.06 49.5412 399.067 49.582 399.086C49.6228 399.106 49.6602 399.136 49.6919 399.177C49.7235 399.217 49.7488 399.266 49.766 399.32C49.7832 399.374 49.792 399.433 49.7919 399.492L53.8297 543.376C53.8328 543.494 53.8017 543.609 53.7432 543.695C53.6847 543.782 53.6035 543.833 53.5175 543.837L53.5052 543.838Z" fill="#0C0C0C"/>
<path d="M260.241 368.112L269.293 340.237C269.492 339.625 269.781 339.076 270.143 338.626C270.505 338.175 270.931 337.833 271.395 337.622C271.858 337.41 272.349 337.333 272.835 337.396C273.322 337.459 273.793 337.66 274.22 337.987C274.994 338.623 275.569 339.632 275.832 340.818C276.095 342.003 276.028 343.281 275.644 344.402L273.703 350.378L286.091 335.428C287.447 333.735 289.901 332.844 291.186 335.058C291.721 335.865 292.041 336.898 292.094 337.987C292.146 339.076 291.928 340.158 291.475 341.055C291.49 341.068 291.504 341.084 291.516 341.102C291.524 341.117 291.531 341.133 291.537 341.15L293.628 338.536C294.016 338.052 294.477 337.693 294.978 337.485C295.48 337.277 296.009 337.225 296.526 337.333C297.044 337.441 297.538 337.707 297.972 338.11C298.405 338.513 298.768 339.044 299.033 339.664C299.437 340.653 299.581 341.801 299.442 342.918C299.302 344.034 298.888 345.051 298.268 345.798L297.378 346.91C297.389 346.961 297.394 347.013 297.392 347.065C298.12 346.506 298.97 346.32 299.789 346.541C300.608 346.762 301.343 347.376 301.863 348.273C302.41 349.277 302.662 350.528 302.567 351.776C302.472 353.023 302.038 354.176 301.352 355.004L299.145 357.766C299.196 357.757 299.248 357.765 299.297 357.79C299.346 357.814 299.389 357.854 299.424 357.906C299.464 357.971 299.489 358.05 299.496 358.133C300.246 357.882 301.034 357.976 301.741 358.4C302.448 358.824 303.034 359.555 303.409 360.48C303.788 361.464 303.915 362.595 303.767 363.689C303.62 364.784 303.208 365.778 302.598 366.511L283.947 389.822C281.338 393.083 278.079 395.2 274.587 395.902C271.096 396.604 267.531 395.858 264.351 393.761C261.608 391.952 259.487 388.747 258.439 384.826C257.39 380.905 257.497 376.577 258.736 372.762L260.241 368.112Z" fill="#E98862"/>
<g opacity="0.2">
<path d="M279.266 355.933C279.324 356.019 279.403 356.071 279.488 356.077C279.573 356.083 279.657 356.043 279.72 355.965L291.489 341.727C291.521 341.688 291.547 341.641 291.565 341.589C291.584 341.536 291.595 341.479 291.598 341.421C291.6 341.362 291.595 341.304 291.581 341.248C291.567 341.193 291.545 341.142 291.517 341.098C291.489 341.054 291.455 341.018 291.416 340.993C291.378 340.967 291.336 340.952 291.294 340.948C291.251 340.944 291.209 340.952 291.168 340.971C291.128 340.99 291.091 341.02 291.059 341.059L279.292 355.296C279.26 355.335 279.234 355.382 279.215 355.434C279.196 355.487 279.185 355.544 279.183 355.603C279.18 355.661 279.186 355.72 279.2 355.775C279.214 355.83 279.235 355.881 279.263 355.925L279.266 355.933Z" fill="#0C0C0C"/>
</g>
<g opacity="0.2">
<path d="M283.697 363.232C283.754 363.318 283.834 363.369 283.919 363.375C284.004 363.381 284.087 363.341 284.151 363.263L297.284 347.374C297.316 347.335 297.342 347.288 297.361 347.236C297.38 347.183 297.391 347.126 297.393 347.067C297.396 347.009 297.39 346.95 297.376 346.895C297.362 346.84 297.341 346.789 297.313 346.745C297.254 346.66 297.174 346.608 297.089 346.601C297.004 346.593 296.92 346.631 296.854 346.706L283.721 362.595C283.689 362.634 283.663 362.681 283.644 362.733C283.626 362.786 283.615 362.843 283.612 362.901C283.609 362.96 283.615 363.018 283.629 363.074C283.643 363.129 283.664 363.18 283.693 363.224L283.697 363.232Z" fill="#0C0C0C"/>
</g>
<g opacity="0.2">
<path d="M288.464 371.174C288.521 371.26 288.601 371.312 288.686 371.318C288.771 371.324 288.854 371.284 288.918 371.206L299.394 358.532C299.458 358.454 299.498 358.343 299.503 358.225C299.509 358.107 299.48 357.991 299.423 357.902C299.366 357.814 299.285 357.76 299.199 357.752C299.113 357.745 299.029 357.785 298.964 357.863L288.488 370.538C288.456 370.577 288.43 370.624 288.411 370.676C288.393 370.729 288.382 370.786 288.379 370.844C288.376 370.903 288.382 370.962 288.396 371.017C288.41 371.072 288.431 371.123 288.46 371.167L288.464 371.174Z" fill="#0C0C0C"/>
</g>
<path d="M160.541 273.608C158.136 257.013 157.033 245.942 157.16 234.261C160.549 226.101 159.658 216.736 158.888 212.689C162.209 215.176 163.598 215.451 166.724 215.451C166.724 215.451 161.12 184.575 142.072 176.267C138.567 174.395 129.627 172.031 117.753 174.267C107.654 176.169 82.7582 186.535 79.1987 225.013V225.035C79.0806 226.311 76.6907 261.762 71.9253 278.771C65.5184 301.638 56.525 308.742 56.7528 335.124C57.0462 369.059 102.49 373.576 129.902 371.033C157.315 368.49 172.611 356.122 172.811 331.666C173.031 304.265 165.355 306.81 160.541 273.608Z" fill="#0A0A0A"/>
<path d="M160.55 259.698C155.433 260.982 150.284 254.509 149.349 247.485C148.414 240.462 152.044 235.545 157.161 234.261L160.55 259.698Z" fill="#E98862"/>
<path d="M215.581 536.399C210.435 536.398 205.421 534.159 201.259 530.002C197.097 525.846 194.001 519.986 192.416 513.264L158.6 369.684L204.919 349.124L222.703 424.645L253.438 357.543L294.648 393.117L236.181 520.77C233.99 525.554 230.951 529.496 227.348 532.23C223.746 534.963 219.698 536.398 215.581 536.399Z" fill="#B89BF7"/>
<path d="M188.293 496.757C188.273 496.758 188.253 496.755 188.233 496.75C188.149 496.728 188.074 496.662 188.025 496.564C187.977 496.467 187.958 496.347 187.974 496.231L199.469 410.563C199.485 410.447 199.533 410.344 199.604 410.277C199.675 410.21 199.763 410.184 199.847 410.206C199.932 410.227 200.007 410.294 200.056 410.391C200.105 410.488 200.124 410.608 200.108 410.725L188.612 496.393C188.599 496.495 188.559 496.588 188.501 496.654C188.442 496.721 188.369 496.757 188.293 496.757Z" fill="#0C0C0C"/>
<path d="M226.84 444.866C226.768 444.867 226.698 444.834 226.641 444.774C226.584 444.713 226.544 444.629 226.525 444.533L222.696 424.283C222.685 424.226 222.683 424.167 222.689 424.109C222.695 424.051 222.709 423.996 222.73 423.945C222.752 423.895 222.781 423.851 222.815 423.815C222.849 423.78 222.887 423.755 222.929 423.74C222.97 423.725 223.013 423.722 223.055 423.73C223.097 423.738 223.138 423.757 223.175 423.787C223.211 423.817 223.243 423.856 223.269 423.903C223.295 423.949 223.314 424.003 223.324 424.059L227.154 444.31C227.175 444.424 227.163 444.545 227.119 444.647C227.075 444.749 227.004 444.823 226.921 444.852C226.894 444.862 226.867 444.867 226.84 444.866Z" fill="#0C0C0C"/>
<g clip-path="url(#clip0_106_1652)">
<path d="M57.1993 126.682L53.5483 113.475L49.8973 126.682L38.9443 131.084L49.8973 135.486L53.5483 148.692L57.1993 135.486L68.1522 131.084L57.1993 126.682ZM53.5483 134.077C52.2339 134.077 51.0656 132.844 51.0656 131.084C51.0656 129.499 52.0879 128.09 53.5483 128.09C54.8626 128.09 56.031 129.323 56.031 131.084C56.031 132.668 54.8626 134.077 53.5483 134.077Z" fill="#7D7D7D"/>
<path d="M86.6502 142.04L81.1331 122.084L75.6161 142.04L59.0649 148.692L75.6161 155.344L81.1331 175.3L86.6502 155.344L103.201 148.692L86.6502 142.04ZM81.1331 153.215C79.147 153.215 77.3815 151.353 77.3815 148.692C77.3815 146.297 78.9263 144.169 81.1331 144.169C83.1193 144.169 84.8847 146.031 84.8847 148.692C84.8847 151.087 83.1193 153.215 81.1331 153.215Z" fill="#7D7D7D"/>
</g>
<defs>
<clipPath id="clip0_106_1652">
<rect width="70.099" height="84.5196" fill="white" transform="translate(33.1025 98.6062)"/>
</clipPath>
</defs>
</svg>
