<svg width="800" height="595" viewBox="0 0 800 595" fill="none" xmlns="http://www.w3.org/2000/svg">
<path d="M737.124 568.194H670.648V594.109H737.124V568.194Z" fill="#292A2E"/>
<path opacity="0.2" d="M737.124 568.194H670.648V594.109H737.124V568.194Z" fill="white"/>
<path d="M61.1488 543.392L52.6665 594.109H217.417L207.927 542.427L61.1488 543.392Z" fill="#262626"/>
<path d="M16.8858 595H758.407C758.604 595 758.793 594.906 758.932 594.739C759.071 594.572 759.149 594.345 759.149 594.109C759.149 593.873 759.071 593.646 758.932 593.479C758.793 593.312 758.604 593.218 758.407 593.218H16.8858C16.6891 593.218 16.5004 593.312 16.3613 593.479C16.2222 593.646 16.144 593.873 16.144 594.109C16.144 594.345 16.2222 594.572 16.3613 594.739C16.5004 594.906 16.6891 595 16.8858 595Z" fill="#292A2E"/>
<path d="M299.818 417.092H110.612C110.539 417.101 110.467 417.091 110.398 417.064C110.329 417.037 110.265 416.993 110.211 416.934C110.158 416.876 110.115 416.804 110.085 416.725C110.056 416.645 110.041 416.559 110.041 416.472C110.041 416.384 110.056 416.298 110.085 416.219C110.115 416.139 110.158 416.068 110.211 416.009C110.265 415.951 110.329 415.906 110.398 415.879C110.467 415.852 110.539 415.842 110.612 415.851H299.818C299.946 415.866 300.065 415.939 300.151 416.053C300.238 416.168 300.285 416.317 300.285 416.472C300.285 416.626 300.238 416.775 300.151 416.89C300.065 417.005 299.946 417.077 299.818 417.092Z" fill="#292A2E"/>
<path d="M674.554 387.329L673.079 387.523L691.29 587.427L692.765 587.233L674.554 387.329Z" fill="#292A2E"/>
<path d="M721.72 474.598L712.761 581.063L714.237 581.242L723.196 474.778L721.72 474.598Z" fill="#292A2E"/>
<path d="M777.199 520.477C789.792 500.372 783.788 469.421 763.789 451.346C743.791 433.271 717.37 434.917 704.777 455.022C692.184 475.126 698.188 506.077 718.186 524.152C738.185 542.227 764.606 540.582 777.199 520.477Z" fill="#0CBC8B"/>
<path opacity="0.2" d="M777.199 520.477C789.792 500.372 783.788 469.421 763.789 451.346C743.791 433.271 717.37 434.917 704.777 455.022C692.184 475.126 698.188 506.077 718.186 524.152C738.185 542.227 764.606 540.582 777.199 520.477Z" fill="white"/>
<path opacity="0.5" d="M777.197 520.481C776.351 521.837 775.429 523.121 774.436 524.325C760.573 534.963 740.112 533.288 723.88 518.615C703.883 500.543 697.882 469.592 710.476 449.488C711.323 448.136 712.243 446.851 713.231 445.644C727.102 434.998 747.555 436.68 763.793 451.347C783.79 469.425 789.791 500.376 777.197 520.481Z" fill="white"/>
<path d="M684.43 444.203C704.242 425.833 709.626 394.328 696.457 373.834C683.288 353.34 656.552 351.619 636.741 369.989C616.929 388.359 611.544 419.865 624.714 440.358C637.883 460.852 664.619 462.573 684.43 444.203Z" fill="#0CBC8B"/>
<path opacity="0.2" d="M678.151 438.929C662.808 453.165 643.31 455.334 629.176 446.067C627.54 444.336 626.046 442.421 624.714 440.349C611.543 419.861 616.925 388.353 636.737 369.986C652.08 355.759 671.578 353.582 685.706 362.841C687.345 364.572 688.842 366.489 690.174 368.567C703.346 389.054 697.962 420.563 678.151 438.929Z" fill="white"/>
<path d="M77.8537 231.542C117.705 231.542 150.011 192.735 150.011 144.865C150.011 96.9938 117.705 58.1869 77.8537 58.1869C38.0023 58.1869 5.69629 96.9938 5.69629 144.865C5.69629 192.735 38.0023 231.542 77.8537 231.542Z" fill="#F4F4F4"/>
<g opacity="0.05">
<path d="M77.8539 213.579C109.446 213.579 135.057 182.814 135.057 144.865C135.057 106.915 109.446 76.1506 77.8539 76.1506C46.2615 76.1506 20.6509 106.915 20.6509 144.865C20.6509 182.814 46.2615 213.579 77.8539 213.579Z" fill="#292A2E"/>
</g>
<path d="M713.99 173.355C753.842 173.355 786.148 134.549 786.148 86.6777C786.148 38.807 753.842 0 713.99 0C674.139 0 641.833 38.807 641.833 86.6777C641.833 134.549 674.139 173.355 713.99 173.355Z" fill="#F4F4F4"/>
<g opacity="0.05">
<path d="M713.991 155.392C745.583 155.392 771.194 124.627 771.194 86.6777C771.194 48.7281 745.583 17.9637 713.991 17.9637C682.399 17.9637 656.788 48.7281 656.788 86.6777C656.788 124.627 682.399 155.392 713.991 155.392Z" fill="#292A2E"/>
</g>
<path d="M652.403 44.61H151.928C139.638 44.61 129.674 56.5782 129.674 71.3418V511.503C129.674 526.266 139.638 538.234 151.928 538.234H652.403C664.694 538.234 674.657 526.266 674.657 511.503V71.3418C674.657 56.5782 664.694 44.61 652.403 44.61Z" fill="white"/>
<path d="M652.402 539.124H151.928C145.831 539.116 139.987 536.203 135.676 531.025C131.365 525.846 128.94 518.825 128.933 511.502V71.3417C128.939 64.0182 131.364 56.997 135.675 51.8185C139.986 46.64 145.831 43.7271 151.928 43.7189H652.402C658.499 43.7269 664.344 46.6397 668.655 51.8183C672.966 56.9968 675.391 64.0181 675.397 71.3417V511.502C675.391 518.825 672.966 525.846 668.655 531.025C664.344 536.203 658.499 539.116 652.402 539.124ZM151.928 45.501C146.225 45.5085 140.757 48.2335 136.724 53.0779C132.691 57.9223 130.422 64.4906 130.416 71.3417V511.502C130.422 518.353 132.691 524.921 136.724 529.765C140.757 534.61 146.225 537.335 151.928 537.342H652.402C658.105 537.335 663.573 534.61 667.606 529.765C671.639 524.921 673.908 518.353 673.914 511.502V71.3417C673.908 64.4906 671.639 57.9223 667.606 53.0779C663.573 48.2335 658.105 45.5085 652.402 45.501H151.928Z" fill="#292A2E"/>
<path d="M226.953 285.871C226.661 285.871 226.371 285.802 226.101 285.667C225.831 285.533 225.586 285.336 225.38 285.087L214.995 272.612C214.589 272.108 214.365 271.433 214.37 270.732C214.375 270.031 214.609 269.361 215.022 268.865C215.435 268.369 215.993 268.088 216.576 268.082C217.16 268.076 217.722 268.346 218.141 268.833L228.526 281.307C228.838 281.681 229.05 282.157 229.135 282.676C229.221 283.194 229.177 283.732 229.009 284.22C228.84 284.709 228.555 285.126 228.189 285.42C227.823 285.714 227.393 285.87 226.953 285.871Z" fill="#0CBC8B"/>
<path d="M216.568 285.871C216.128 285.87 215.697 285.714 215.332 285.42C214.966 285.126 214.681 284.709 214.512 284.22C214.344 283.732 214.3 283.194 214.386 282.676C214.471 282.157 214.683 281.681 214.994 281.307L225.379 268.833C225.799 268.346 226.361 268.076 226.945 268.082C227.528 268.088 228.086 268.369 228.499 268.865C228.912 269.361 229.146 270.031 229.151 270.732C229.156 271.433 228.931 272.108 228.526 272.612L218.141 285.087C217.935 285.336 217.689 285.533 217.419 285.668C217.149 285.802 216.86 285.871 216.568 285.871Z" fill="#0CBC8B"/>
<path d="M524.297 405.103L521.333 413.271L539.576 422.825L542.541 414.657L524.297 405.103Z" fill="#0CBC8B"/>
<path d="M530.056 186.117L512.898 198.228L516.656 205.911L533.814 193.799L530.056 186.117Z" fill="#0CBC8B"/>
<path d="M244.134 206.858L241.836 215.33L260.759 222.736L263.057 214.264L244.134 206.858Z" fill="#0CBC8B"/>
<path d="M266.288 348.956L249.988 362.655L254.239 369.952L270.538 356.254L266.288 348.956Z" fill="#0CBC8B"/>
<path d="M565.239 317.556L564.558 326.429L583.942 328.576L584.623 319.703L565.239 317.556Z" fill="#0CBC8B"/>
<path d="M584.98 253.731C584.688 253.731 584.398 253.662 584.128 253.528C583.858 253.394 583.613 253.196 583.407 252.948L573.022 240.473C572.809 240.226 572.64 239.931 572.523 239.605C572.406 239.279 572.345 238.928 572.342 238.573C572.34 238.218 572.396 237.866 572.508 237.538C572.62 237.209 572.785 236.911 572.994 236.66C573.203 236.409 573.451 236.21 573.725 236.076C573.998 235.941 574.291 235.874 574.587 235.877C574.882 235.88 575.174 235.954 575.446 236.094C575.717 236.234 575.963 236.438 576.168 236.693L586.553 249.168C586.864 249.542 587.076 250.018 587.162 250.536C587.248 251.055 587.204 251.592 587.036 252.081C586.867 252.569 586.582 252.986 586.216 253.28C585.85 253.574 585.42 253.731 584.98 253.731Z" fill="#0CBC8B"/>
<path d="M574.595 253.731C574.155 253.731 573.725 253.574 573.359 253.28C572.993 252.986 572.708 252.569 572.539 252.081C572.371 251.592 572.327 251.055 572.413 250.536C572.499 250.018 572.711 249.542 573.022 249.168L583.407 236.693C583.612 236.438 583.858 236.234 584.129 236.094C584.401 235.954 584.693 235.88 584.988 235.877C585.284 235.874 585.577 235.941 585.85 236.076C586.124 236.21 586.372 236.409 586.581 236.66C586.79 236.911 586.955 237.209 587.067 237.538C587.179 237.866 587.235 238.218 587.233 238.573C587.23 238.928 587.169 239.279 587.052 239.605C586.935 239.931 586.766 240.226 586.553 240.473L576.168 252.948C575.962 253.196 575.717 253.393 575.447 253.528C575.177 253.662 574.887 253.731 574.595 253.731Z" fill="#0CBC8B"/>
<path opacity="0.4" d="M402.165 446.5C467.521 446.5 520.502 382.857 520.502 304.35C520.502 225.843 467.521 162.201 402.165 162.201C336.81 162.201 283.829 225.843 283.829 304.35C283.829 382.857 336.81 446.5 402.165 446.5Z" fill="#0CBC8B"/>
<path d="M402.165 403.763C447.872 403.763 484.924 359.254 484.924 304.35C484.924 249.446 447.872 204.937 402.165 204.937C356.459 204.937 319.406 249.446 319.406 304.35C319.406 359.254 356.459 403.763 402.165 403.763Z" fill="#0CBC8B"/>
<path d="M385.243 346.999C384.594 346.999 383.951 346.842 383.353 346.535C382.755 346.229 382.215 345.78 381.766 345.217L355.424 312.286C354.977 311.739 354.625 311.092 354.388 310.381C354.151 309.67 354.033 308.909 354.042 308.143C354.052 307.377 354.187 306.621 354.441 305.919C354.695 305.216 355.063 304.581 355.523 304.05C355.983 303.519 356.525 303.104 357.12 302.827C357.715 302.55 358.349 302.417 358.986 302.436C359.624 302.456 360.252 302.627 360.834 302.94C361.416 303.253 361.94 303.702 362.377 304.26L385.491 333.155L445.92 268.037C446.39 267.521 446.941 267.122 447.54 266.862C448.14 266.603 448.776 266.489 449.412 266.527C450.048 266.565 450.672 266.753 451.247 267.083C451.822 267.412 452.338 267.874 452.763 268.444C453.188 269.013 453.516 269.679 453.726 270.401C453.936 271.123 454.025 271.889 453.987 272.653C453.95 273.417 453.787 274.164 453.507 274.852C453.228 275.539 452.838 276.154 452.36 276.659L388.463 345.515C387.579 346.471 386.432 346.999 385.243 346.999Z" fill="white"/>
<path d="M674.655 71.3382V98.2366H129.676V71.3382C129.676 64.2485 132.021 57.4492 136.194 52.436C140.368 47.4228 146.028 44.6064 151.93 44.6064H652.402C658.304 44.6064 663.964 47.4228 668.137 52.436C672.311 57.4492 674.655 64.2485 674.655 71.3382Z" fill="#292A2E"/>
<path d="M27.8127 541.458C23.3314 541.457 18.9166 540.156 14.944 537.665C10.9715 535.174 7.55877 531.566 4.99633 527.15C2.43388 522.734 0.797577 517.64 0.226669 512.3C-0.34424 506.961 0.167151 501.535 1.71732 496.485C3.29065 491.356 43.6469 366.218 50.6753 344.47L99.2409 378.419C95.2909 390.649 80.9788 437.002 69.4811 474.343L88.5829 471.848L94.5951 532.939L30.8266 541.267C29.8255 541.396 28.8194 541.46 27.8127 541.458Z" fill="#B89BF6"/>
<path d="M186.663 318.447C186.492 318.42 181.819 339.547 145.345 336.259C120.095 333.987 113.938 313.341 113.359 313.341C116.082 312.646 120.503 311.924 121.712 311.149C125.688 308.583 128.584 305.458 130.042 298.754C131.182 293.511 131.763 273.328 131.763 263.201L170.618 273.689C170.076 285.112 166.286 311.594 179.571 316.281C181.782 317.057 184.163 317.769 186.663 318.447Z" fill="#E98862"/>
<path d="M169.275 296.147C153.957 297.599 134.281 289.83 130.543 265.282L127.171 243.132C123.433 218.583 131.137 196.324 150.379 192.097C169.62 187.87 187.033 204.61 190.77 229.159L192.263 238.966C193.695 248.384 196.602 293.558 169.275 296.147Z" fill="#E98862"/>
<path d="M96.7699 316.739C83.0053 317.966 68.9699 319.757 58.8416 331.02C46.6436 344.586 44.4331 361.266 52.2152 407.168C58.9105 446.664 56.2549 463.923 60.7339 536.804C60.8659 538.952 61.1485 543.392 61.1485 543.392L208.393 543.099C208.393 543.099 222.191 446.404 229.808 401.805C235.601 367.9 250.816 326.739 186.663 318.444C186.494 318.422 135.041 313.328 96.7699 316.739Z" fill="#B89BF7"/>
<path d="M61.1489 543.838C61.0529 543.838 60.9607 543.794 60.8915 543.714C60.8223 543.634 60.7816 543.525 60.778 543.41L56.1633 399.526C56.1597 399.408 56.1953 399.293 56.2622 399.206C56.3291 399.12 56.4219 399.069 56.5201 399.064C56.5693 399.06 56.6187 399.067 56.6653 399.086C56.7119 399.106 56.7546 399.136 56.7908 399.177C56.827 399.217 56.8559 399.266 56.8755 399.32C56.8952 399.374 56.9053 399.433 56.9051 399.492L61.5198 543.376C61.5234 543.494 61.4878 543.609 61.4209 543.695C61.354 543.782 61.2612 543.833 61.163 543.837L61.1489 543.838Z" fill="#0C0C0C"/>
<path d="M297.418 368.112L307.763 340.237C307.99 339.625 308.321 339.076 308.735 338.626C309.149 338.175 309.636 337.833 310.166 337.622C310.695 337.41 311.256 337.333 311.812 337.396C312.367 337.459 312.906 337.66 313.394 337.987C314.279 338.623 314.936 339.632 315.236 340.818C315.537 342.003 315.461 343.281 315.021 344.402L312.803 350.378L326.961 335.428C328.511 333.735 331.315 332.844 332.784 335.058C333.396 335.865 333.761 336.898 333.821 337.987C333.881 339.076 333.632 340.158 333.114 341.055C333.131 341.068 333.147 341.084 333.161 341.102C333.17 341.117 333.178 341.133 333.185 341.15L335.575 338.536C336.018 338.052 336.545 337.693 337.118 337.485C337.691 337.277 338.295 337.225 338.887 337.333C339.479 337.441 340.043 337.707 340.539 338.11C341.035 338.513 341.449 339.044 341.752 339.664C342.214 340.653 342.378 341.801 342.219 342.918C342.06 344.034 341.586 345.051 340.877 345.798L339.86 346.91C339.873 346.961 339.878 347.013 339.876 347.065C340.709 346.506 341.68 346.32 342.616 346.541C343.552 346.762 344.392 347.376 344.986 348.273C345.611 349.277 345.899 350.528 345.791 351.776C345.682 353.023 345.187 354.176 344.402 355.004L341.88 357.766C341.939 357.757 341.998 357.765 342.054 357.79C342.109 357.814 342.159 357.854 342.199 357.906C342.244 357.971 342.273 358.05 342.281 358.133C343.138 357.882 344.039 357.976 344.847 358.4C345.655 358.824 346.324 359.555 346.753 360.48C347.186 361.464 347.331 362.595 347.163 363.689C346.995 364.784 346.524 365.778 345.826 366.511L324.511 389.822C321.529 393.083 317.804 395.2 313.814 395.902C309.824 396.604 305.75 395.858 302.115 393.761C298.98 391.952 296.557 388.747 295.358 384.826C294.16 380.905 294.282 376.577 295.698 372.762L297.418 368.112Z" fill="#E98862"/>
<g opacity="0.2">
<path d="M319.161 355.933C319.227 356.019 319.318 356.071 319.415 356.077C319.513 356.083 319.608 356.043 319.681 355.965L333.13 341.727C333.166 341.688 333.196 341.641 333.218 341.589C333.239 341.536 333.252 341.479 333.255 341.421C333.258 341.362 333.251 341.304 333.235 341.248C333.22 341.193 333.195 341.142 333.163 341.098C333.13 341.054 333.091 341.018 333.047 340.993C333.004 340.967 332.956 340.952 332.907 340.948C332.859 340.944 332.81 340.952 332.764 340.971C332.718 340.99 332.675 341.02 332.639 341.059L319.191 355.296C319.154 355.335 319.125 355.382 319.103 355.434C319.082 355.487 319.069 355.544 319.066 355.603C319.063 355.661 319.07 355.72 319.086 355.775C319.101 355.83 319.126 355.881 319.158 355.925L319.161 355.933Z" fill="#0C0C0C"/>
</g>
<g opacity="0.2">
<path d="M324.225 363.232C324.291 363.318 324.382 363.369 324.479 363.375C324.576 363.381 324.671 363.341 324.744 363.263L339.753 347.374C339.79 347.335 339.82 347.288 339.841 347.236C339.863 347.183 339.875 347.126 339.878 347.067C339.881 347.009 339.875 346.95 339.859 346.895C339.843 346.84 339.818 346.789 339.786 346.745C339.719 346.66 339.628 346.608 339.531 346.601C339.433 346.593 339.337 346.631 339.262 346.706L324.253 362.595C324.216 362.634 324.187 362.681 324.165 362.733C324.144 362.786 324.131 362.843 324.128 362.901C324.125 362.96 324.132 363.018 324.148 363.074C324.163 363.129 324.188 363.18 324.22 363.224L324.225 363.232Z" fill="#0C0C0C"/>
</g>
<g opacity="0.2">
<path d="M329.673 371.174C329.738 371.26 329.83 371.312 329.927 371.318C330.024 371.324 330.119 371.284 330.192 371.206L342.164 358.532C342.238 358.454 342.283 358.343 342.289 358.225C342.296 358.107 342.262 357.991 342.197 357.902C342.132 357.814 342.04 357.76 341.942 357.752C341.844 357.745 341.747 357.785 341.673 357.863L329.701 370.538C329.664 370.577 329.634 370.624 329.613 370.676C329.592 370.729 329.579 370.786 329.576 370.844C329.573 370.903 329.579 370.962 329.595 371.017C329.611 371.072 329.636 371.123 329.668 371.167L329.673 371.174Z" fill="#0C0C0C"/>
</g>
<path d="M183.476 273.608C180.727 257.013 179.466 245.942 179.612 234.261C183.485 226.101 182.466 216.736 181.586 212.689C185.382 215.176 186.969 215.451 190.541 215.451C190.541 215.451 184.137 184.575 162.368 176.267C158.363 174.395 148.145 172.031 134.575 174.267C123.033 176.169 94.5808 186.535 90.5128 225.013V225.035C90.3778 226.311 87.6466 261.762 82.2004 278.771C74.8782 301.638 64.6 308.742 64.8603 335.124C65.1956 369.059 117.131 373.576 148.46 371.033C179.789 368.49 197.269 356.122 197.498 331.666C197.75 304.265 188.977 306.81 183.476 273.608Z" fill="#0A0A0A"/>
<path d="M183.485 259.698C177.638 260.982 171.753 254.509 170.684 247.485C169.615 240.462 173.765 235.545 179.612 234.261L183.485 259.698Z" fill="#E98862"/>
<path d="M246.379 536.399C240.497 536.398 234.767 534.159 230.01 530.002C225.254 525.846 221.716 519.986 219.904 513.264L181.257 369.684L234.193 349.124L254.518 424.645L289.644 357.543L336.741 393.117L269.921 520.77C267.417 525.554 263.944 529.496 259.827 532.23C255.71 534.963 251.083 536.398 246.379 536.399Z" fill="#B89BF7"/>
<path d="M215.192 496.757C215.169 496.758 215.146 496.755 215.124 496.75C215.027 496.728 214.942 496.662 214.886 496.564C214.83 496.467 214.809 496.347 214.827 496.231L227.965 410.563C227.983 410.447 228.038 410.344 228.119 410.277C228.2 410.21 228.3 410.184 228.397 410.206C228.494 410.227 228.58 410.294 228.635 410.391C228.691 410.488 228.713 410.608 228.695 410.725L215.557 496.393C215.541 496.495 215.496 496.588 215.429 496.654C215.363 496.721 215.279 496.757 215.192 496.757Z" fill="#0C0C0C"/>
<path d="M259.246 444.866C259.164 444.867 259.084 444.834 259.018 444.774C258.953 444.713 258.907 444.629 258.886 444.533L254.509 424.283C254.497 424.226 254.494 424.167 254.501 424.109C254.508 424.051 254.524 423.996 254.549 423.945C254.573 423.895 254.606 423.851 254.645 423.815C254.684 423.78 254.728 423.755 254.775 423.74C254.823 423.725 254.872 423.722 254.92 423.73C254.968 423.738 255.015 423.757 255.056 423.787C255.098 423.817 255.135 423.856 255.165 423.903C255.194 423.949 255.215 424.003 255.227 424.059L259.604 444.31C259.629 444.424 259.614 444.545 259.564 444.647C259.514 444.749 259.433 444.823 259.338 444.852C259.308 444.862 259.277 444.867 259.246 444.866Z" fill="#0C0C0C"/>
<g clip-path="url(#clip0_106_1652)">
<path d="M65.3706 126.682L61.198 113.475L57.0255 126.682L44.5078 131.084L57.0255 135.486L61.198 148.692L65.3706 135.486L77.8883 131.084L65.3706 126.682ZM61.198 134.077C59.6959 134.077 58.3607 132.844 58.3607 131.084C58.3607 129.499 59.529 128.09 61.198 128.09C62.7002 128.09 64.0354 129.323 64.0354 131.084C64.0354 132.668 62.7002 134.077 61.198 134.077Z" fill="#7D7D7D"/>
<path d="M99.0289 142.04L92.7237 122.084L86.4185 142.04L67.5029 148.692L86.4185 155.344L92.7237 175.3L99.0289 155.344L117.945 148.692L99.0289 142.04ZM92.7237 153.215C90.4538 153.215 88.4362 151.353 88.4362 148.692C88.4362 146.297 90.2016 144.169 92.7237 144.169C94.9936 144.169 97.0113 146.031 97.0113 148.692C97.0113 151.087 94.9936 153.215 92.7237 153.215Z" fill="#7D7D7D"/>
</g>
<defs>
<clipPath id="clip0_106_1652">
<rect width="80.1131" height="84.5196" fill="white" transform="translate(37.8315 98.6062)"/>
</clipPath>
</defs>
</svg>
