<svg width="698" height="493" viewBox="0 0 698 493" fill="none" xmlns="http://www.w3.org/2000/svg">
<path d="M642.657 470.145H584.7V491.561H642.657V470.145Z" fill="#292A2E"/>
<path opacity="0.2" d="M642.657 470.145H584.7V491.561H642.657V470.145Z" fill="white"/>
<path d="M53.3123 449.649L45.917 491.561H189.554L181.28 448.852L53.3123 449.649Z" fill="#262626"/>
<path d="M14.7219 492.297H661.213C661.385 492.297 661.549 492.22 661.67 492.082C661.792 491.943 661.86 491.756 661.86 491.561C661.86 491.366 661.792 491.178 661.67 491.04C661.549 490.902 661.385 490.824 661.213 490.824H14.7219C14.5504 490.824 14.3859 490.902 14.2646 491.04C14.1433 491.178 14.0752 491.366 14.0752 491.561C14.0752 491.756 14.1433 491.943 14.2646 492.082C14.3859 492.22 14.5504 492.297 14.7219 492.297Z" fill="#292A2E"/>
<path d="M261.395 345.276H96.4364C96.3735 345.283 96.3099 345.275 96.2498 345.253C96.1897 345.23 96.1344 345.194 96.0875 345.145C96.0406 345.097 96.0031 345.038 95.9774 344.972C95.9517 344.906 95.9385 344.835 95.9385 344.763C95.9385 344.691 95.9517 344.62 95.9774 344.554C96.0031 344.488 96.0406 344.429 96.0875 344.381C96.1344 344.332 96.1897 344.296 96.2498 344.273C96.3099 344.251 96.3735 344.243 96.4364 344.25H261.395C261.507 344.263 261.61 344.322 261.685 344.417C261.761 344.512 261.802 344.635 261.802 344.763C261.802 344.891 261.761 345.014 261.685 345.109C261.61 345.204 261.507 345.263 261.395 345.276Z" fill="#292A2E"/>
<path d="M588.106 320.68L586.82 320.84L602.697 486.039L603.983 485.879L588.106 320.68Z" fill="#292A2E"/>
<path d="M629.228 392.798L621.417 480.78L622.704 480.928L630.515 392.946L629.228 392.798Z" fill="#292A2E"/>
<path d="M677.596 430.712C688.575 414.098 683.341 388.52 665.905 373.583C648.469 358.646 625.434 360.006 614.455 376.621C603.476 393.235 608.711 418.812 626.146 433.75C643.582 448.687 666.617 447.327 677.596 430.712Z" fill="#0CBC8B"/>
<path opacity="0.2" d="M677.596 430.712C688.575 414.098 683.341 388.52 665.905 373.583C648.469 358.646 625.434 360.006 614.455 376.621C603.476 393.235 608.711 418.812 626.146 433.75C643.582 448.687 666.617 447.327 677.596 430.712Z" fill="white"/>
<path opacity="0.5" d="M677.595 430.715C676.858 431.836 676.053 432.897 675.187 433.892C663.101 442.683 645.263 441.299 631.111 429.173C613.677 414.239 608.444 388.662 619.424 372.048C620.163 370.93 620.965 369.869 621.826 368.871C633.92 360.073 651.751 361.463 665.909 373.584C683.343 388.523 688.575 414.101 677.595 430.715Z" fill="white"/>
<path d="M596.717 367.68C613.989 352.499 618.684 326.463 607.202 309.528C595.721 292.592 572.411 291.17 555.138 306.35C537.866 321.531 533.171 347.567 544.653 364.503C556.134 381.438 579.444 382.861 596.717 367.68Z" fill="#0CBC8B"/>
<path opacity="0.2" d="M591.242 363.322C577.866 375.086 560.866 376.878 548.544 369.22C547.118 367.79 545.815 366.208 544.654 364.495C533.171 347.564 537.863 321.526 555.136 306.348C568.513 294.591 585.512 292.792 597.829 300.443C599.259 301.874 600.563 303.458 601.724 305.175C613.208 322.105 608.514 348.144 591.242 363.322Z" fill="white"/>
<path d="M67.8758 191.939C102.62 191.939 130.786 159.87 130.786 120.31C130.786 80.7499 102.62 48.6802 67.8758 48.6802C33.1316 48.6802 4.96582 80.7499 4.96582 120.31C4.96582 159.87 33.1316 191.939 67.8758 191.939Z" fill="#F4F4F4"/>
<g opacity="0.05">
<path d="M67.8765 177.095C95.4201 177.095 117.749 151.671 117.749 120.31C117.749 88.9487 95.4201 63.5254 67.8765 63.5254C40.3329 63.5254 18.0044 88.9487 18.0044 120.31C18.0044 151.671 40.3329 177.095 67.8765 177.095Z" fill="#292A2E"/>
</g>
<path d="M622.489 143.854C657.233 143.854 685.399 111.785 685.399 72.2248C685.399 32.6649 657.233 0.595215 622.489 0.595215C587.745 0.595215 559.579 32.6649 559.579 72.2248C559.579 111.785 587.745 143.854 622.489 143.854Z" fill="#F4F4F4"/>
<g opacity="0.05">
<path d="M622.489 129.009C650.033 129.009 672.361 103.586 672.361 72.2248C672.361 40.8635 650.033 15.4402 622.489 15.4402C594.946 15.4402 572.617 40.8635 572.617 72.2248C572.617 103.586 594.946 129.009 622.489 129.009Z" fill="#292A2E"/>
</g>
<path d="M568.794 37.4604H132.457C121.742 37.4604 113.056 47.3509 113.056 59.5513V423.296C113.056 435.496 121.742 445.387 132.457 445.387H568.794C579.509 445.387 588.196 435.496 588.196 423.296V59.5513C588.196 47.3509 579.509 37.4604 568.794 37.4604Z" fill="white"/>
<path d="M568.792 446.122H132.457C127.142 446.115 122.046 443.708 118.288 439.429C114.529 435.149 112.415 429.347 112.409 423.295V59.5512C112.415 53.4992 114.529 47.6969 118.287 43.4175C122.046 39.138 127.142 36.7308 132.457 36.724H568.792C574.108 36.7306 579.204 39.1378 582.962 43.4173C586.721 47.6968 588.835 53.4991 588.841 59.5512V423.295C588.835 429.347 586.721 435.149 582.962 439.429C579.204 443.708 574.108 446.115 568.792 446.122ZM132.457 38.1967C127.485 38.203 122.717 40.4548 119.201 44.4582C115.685 48.4616 113.708 53.8896 113.702 59.5512V423.295C113.708 428.957 115.685 434.385 119.201 438.388C122.717 442.391 127.485 444.643 132.457 444.65H568.792C573.765 444.643 578.532 442.391 582.048 438.388C585.564 434.385 587.542 428.957 587.547 423.295V59.5512C587.542 53.8896 585.564 48.4616 582.048 44.4582C578.532 40.4548 573.765 38.203 568.792 38.1967H132.457Z" fill="#292A2E"/>
<path d="M197.867 236.836C197.613 236.836 197.36 236.779 197.125 236.668C196.889 236.557 196.676 236.394 196.496 236.189L187.442 225.88C187.088 225.463 186.893 224.905 186.897 224.326C186.901 223.746 187.106 223.192 187.465 222.783C187.825 222.373 188.312 222.141 188.82 222.136C189.329 222.131 189.819 222.353 190.185 222.756L199.239 233.065C199.51 233.374 199.695 233.767 199.77 234.196C199.845 234.624 199.806 235.068 199.66 235.472C199.513 235.876 199.264 236.221 198.945 236.463C198.626 236.706 198.251 236.836 197.867 236.836Z" fill="#0CBC8B"/>
<path d="M188.813 236.836C188.43 236.836 188.055 236.706 187.736 236.463C187.417 236.221 187.168 235.876 187.021 235.472C186.874 235.068 186.836 234.624 186.911 234.196C186.986 233.767 187.17 233.374 187.442 233.065L196.496 222.756C196.862 222.353 197.352 222.131 197.86 222.136C198.369 222.141 198.856 222.373 199.215 222.783C199.575 223.192 199.779 223.746 199.784 224.326C199.788 224.905 199.593 225.463 199.239 225.88L190.185 236.189C190.005 236.394 189.791 236.557 189.556 236.668C189.321 236.779 189.068 236.836 188.813 236.836Z" fill="#0CBC8B"/>
<path d="M457.105 335.369L454.521 342.119L470.426 350.014L473.011 343.264L457.105 335.369Z" fill="#0CBC8B"/>
<path d="M462.126 154.4L447.167 164.409L450.443 170.758L465.402 160.749L462.126 154.4Z" fill="#0CBC8B"/>
<path d="M212.847 171.541L210.844 178.542L227.342 184.663L229.345 177.661L212.847 171.541Z" fill="#0CBC8B"/>
<path d="M232.161 288.969L217.95 300.289L221.656 306.32L235.866 295L232.161 288.969Z" fill="#0CBC8B"/>
<path d="M492.8 263.021L492.207 270.353L509.107 272.127L509.701 264.795L492.8 263.021Z" fill="#0CBC8B"/>
<path d="M510.012 210.276C509.757 210.276 509.505 210.219 509.269 210.108C509.034 209.997 508.82 209.834 508.64 209.629L499.586 199.32C499.401 199.116 499.253 198.872 499.151 198.602C499.049 198.333 498.996 198.043 498.994 197.75C498.991 197.456 499.041 197.166 499.138 196.894C499.236 196.623 499.38 196.376 499.562 196.169C499.744 195.961 499.961 195.797 500.199 195.686C500.438 195.575 500.693 195.519 500.951 195.522C501.208 195.524 501.463 195.585 501.7 195.701C501.936 195.817 502.15 195.985 502.329 196.196L511.383 206.505C511.655 206.814 511.839 207.207 511.914 207.636C511.989 208.064 511.951 208.509 511.804 208.912C511.657 209.316 511.408 209.661 511.089 209.903C510.77 210.146 510.395 210.276 510.012 210.276Z" fill="#0CBC8B"/>
<path d="M500.958 210.276C500.574 210.276 500.199 210.146 499.88 209.903C499.561 209.661 499.313 209.316 499.166 208.912C499.019 208.509 498.98 208.064 499.055 207.636C499.13 207.207 499.315 206.814 499.586 206.505L508.64 196.196C508.819 195.985 509.033 195.817 509.27 195.701C509.507 195.585 509.761 195.524 510.019 195.522C510.277 195.519 510.532 195.575 510.77 195.686C511.009 195.797 511.226 195.961 511.408 196.169C511.59 196.376 511.734 196.623 511.832 196.894C511.929 197.166 511.978 197.456 511.976 197.75C511.974 198.043 511.92 198.333 511.818 198.602C511.717 198.872 511.569 199.116 511.384 199.32L502.33 209.629C502.15 209.834 501.936 209.997 501.7 210.108C501.465 210.219 501.213 210.276 500.958 210.276Z" fill="#0CBC8B"/>
<path opacity="0.4" d="M350.626 369.578C407.606 369.578 453.797 316.985 453.797 252.107C453.797 187.23 407.606 134.636 350.626 134.636C293.646 134.636 247.455 187.23 247.455 252.107C247.455 316.985 293.646 369.578 350.626 369.578Z" fill="#0CBC8B"/>
<path d="M350.626 334.261C390.475 334.261 422.779 297.479 422.779 252.107C422.779 206.735 390.475 169.953 350.626 169.953C310.777 169.953 278.473 206.735 278.473 252.107C278.473 297.479 310.777 334.261 350.626 334.261Z" fill="#0CBC8B"/>
<path d="M335.872 287.351C335.306 287.352 334.745 287.222 334.224 286.968C333.703 286.715 333.232 286.345 332.84 285.879L309.875 258.665C309.485 258.213 309.178 257.678 308.971 257.091C308.764 256.503 308.662 255.875 308.67 255.242C308.678 254.609 308.796 253.984 309.018 253.403C309.239 252.823 309.56 252.298 309.96 251.859C310.361 251.421 310.835 251.077 311.353 250.848C311.871 250.619 312.424 250.51 312.98 250.526C313.536 250.542 314.083 250.683 314.591 250.942C315.098 251.201 315.556 251.571 315.936 252.033L336.088 275.911L388.773 222.099C389.183 221.672 389.663 221.342 390.185 221.128C390.708 220.913 391.263 220.819 391.817 220.85C392.372 220.882 392.916 221.038 393.417 221.31C393.919 221.581 394.368 221.964 394.739 222.435C395.11 222.905 395.395 223.455 395.578 224.052C395.761 224.649 395.839 225.281 395.806 225.913C395.773 226.544 395.631 227.162 395.388 227.73C395.144 228.298 394.804 228.806 394.387 229.224L338.679 286.125C337.909 286.915 336.909 287.352 335.872 287.351Z" fill="white"/>
<path d="M588.194 59.5484V81.777H113.057V59.5484C113.057 53.6895 115.101 48.0706 118.74 43.9278C122.378 39.7849 127.313 37.4575 132.459 37.4575H568.792C573.938 37.4575 578.873 39.7849 582.511 43.9278C586.15 48.0706 588.194 53.6895 588.194 59.5484Z" fill="#292A2E"/>
<path d="M24.2483 448.051C20.3413 448.05 16.4923 446.975 13.0289 444.916C9.56543 442.857 6.59007 439.876 4.35602 436.227C2.12197 432.577 0.695363 428.367 0.19762 423.955C-0.300123 419.543 0.14573 415.059 1.49723 410.885C2.86893 406.647 38.0533 303.234 44.181 285.262L86.5226 313.317C83.0788 323.424 70.6009 361.729 60.5767 392.587L77.2305 390.525L82.4722 441.011L26.876 447.893C26.0032 448 25.1261 448.052 24.2483 448.051Z" fill="#B89BF6"/>
<path d="M162.741 263.757C162.592 263.734 158.518 281.194 126.719 278.476C104.704 276.599 99.3365 259.537 98.832 259.537C101.206 258.963 105.06 258.366 106.114 257.726C109.581 255.605 112.105 253.023 113.377 247.483C114.371 243.15 114.877 226.471 114.877 218.102L148.753 226.769C148.281 236.209 144.976 258.094 156.559 261.967C158.486 262.608 160.562 263.197 162.741 263.757Z" fill="#E98862"/>
<path d="M147.582 245.328C134.228 246.528 117.073 240.108 113.814 219.821L110.874 201.517C107.615 181.23 114.332 162.836 131.108 159.342C147.883 155.849 163.064 169.683 166.323 189.97L167.624 198.074C168.873 205.858 171.407 243.188 147.582 245.328Z" fill="#E98862"/>
<path d="M84.3685 262.345C72.3679 263.359 60.1313 264.839 51.3009 274.147C40.6662 285.358 38.7389 299.141 45.5237 337.074C51.361 369.714 49.0458 383.976 52.9507 444.205C53.0658 445.979 53.3122 449.649 53.3122 449.649L181.687 449.406C181.687 449.406 193.716 369.499 200.357 332.643C205.407 304.624 218.673 270.609 162.741 263.754C162.594 263.736 117.735 259.527 84.3685 262.345Z" fill="#B89BF7"/>
<path d="M53.3122 450.018C53.2285 450.018 53.1481 449.981 53.0878 449.915C53.0275 449.849 52.992 449.759 52.9888 449.664L48.9656 330.76C48.9624 330.662 48.9934 330.567 49.0517 330.496C49.1101 330.424 49.191 330.382 49.2766 330.378C49.3195 330.374 49.3626 330.38 49.4032 330.396C49.4438 330.412 49.4811 330.438 49.5126 330.471C49.5442 330.504 49.5693 330.544 49.5865 330.589C49.6036 330.634 49.6124 330.683 49.6123 330.732L53.6355 449.636C53.6387 449.733 53.6077 449.828 53.5494 449.9C53.491 449.971 53.4101 450.013 53.3245 450.017L53.3122 450.018Z" fill="#0C0C0C"/>
<path d="M259.302 304.8L268.321 281.764C268.519 281.258 268.808 280.804 269.168 280.432C269.529 280.06 269.954 279.777 270.415 279.602C270.877 279.427 271.366 279.364 271.851 279.416C272.335 279.468 272.805 279.634 273.23 279.904C274.002 280.43 274.574 281.264 274.837 282.244C275.099 283.223 275.032 284.279 274.649 285.206L272.715 290.145L285.059 277.79C286.41 276.391 288.855 275.654 290.135 277.484C290.668 278.151 290.987 279.004 291.039 279.905C291.092 280.805 290.874 281.698 290.423 282.44C290.438 282.451 290.452 282.464 290.464 282.478C290.472 282.491 290.479 282.504 290.485 282.518L292.568 280.358C292.955 279.958 293.414 279.662 293.914 279.49C294.413 279.318 294.94 279.275 295.456 279.364C295.972 279.454 296.464 279.673 296.896 280.006C297.329 280.339 297.69 280.778 297.954 281.291C298.356 282.107 298.5 283.056 298.361 283.979C298.222 284.902 297.809 285.742 297.191 286.36L296.305 287.279C296.316 287.32 296.32 287.363 296.319 287.407C297.044 286.944 297.891 286.791 298.707 286.973C299.523 287.156 300.256 287.663 300.773 288.405C301.319 289.235 301.569 290.268 301.475 291.299C301.381 292.33 300.948 293.283 300.264 293.967L298.066 296.25C298.117 296.242 298.169 296.249 298.217 296.269C298.265 296.289 298.309 296.322 298.344 296.365C298.383 296.419 298.408 296.484 298.415 296.553C299.162 296.346 299.948 296.423 300.652 296.773C301.357 297.124 301.94 297.728 302.314 298.493C302.692 299.306 302.818 300.24 302.671 301.145C302.525 302.049 302.114 302.871 301.506 303.476L282.923 322.74C280.323 325.435 277.075 327.185 273.596 327.765C270.118 328.345 266.566 327.728 263.397 325.995C260.664 324.501 258.551 321.852 257.506 318.612C256.461 315.371 256.567 311.795 257.802 308.642L259.302 304.8Z" fill="#E98862"/>
<g opacity="0.2">
<path d="M278.259 294.735C278.316 294.806 278.396 294.849 278.48 294.854C278.565 294.859 278.648 294.825 278.712 294.761L290.437 282.995C290.469 282.963 290.495 282.924 290.514 282.881C290.533 282.837 290.543 282.79 290.546 282.742C290.549 282.694 290.543 282.645 290.529 282.599C290.515 282.554 290.494 282.511 290.466 282.475C290.438 282.439 290.404 282.409 290.365 282.388C290.327 282.367 290.286 282.354 290.243 282.351C290.201 282.348 290.158 282.355 290.118 282.371C290.078 282.386 290.041 282.411 290.009 282.443L278.285 294.208C278.253 294.24 278.227 294.279 278.208 294.323C278.19 294.366 278.179 294.413 278.176 294.462C278.173 294.51 278.179 294.558 278.193 294.604C278.207 294.65 278.228 294.692 278.256 294.728L278.259 294.735Z" fill="#0C0C0C"/>
</g>
<g opacity="0.2">
<path d="M282.674 300.766C282.731 300.837 282.811 300.88 282.895 300.885C282.98 300.89 283.063 300.856 283.126 300.792L296.212 287.661C296.244 287.629 296.27 287.591 296.289 287.547C296.308 287.504 296.318 287.456 296.321 287.408C296.324 287.36 296.318 287.311 296.304 287.266C296.29 287.22 296.269 287.178 296.241 287.142C296.182 287.071 296.103 287.028 296.018 287.022C295.933 287.016 295.85 287.047 295.784 287.109L282.698 300.24C282.666 300.272 282.64 300.311 282.622 300.354C282.603 300.398 282.592 300.445 282.589 300.493C282.587 300.541 282.593 300.59 282.606 300.636C282.62 300.681 282.642 300.724 282.67 300.76L282.674 300.766Z" fill="#0C0C0C"/>
</g>
<g opacity="0.2">
<path d="M287.423 307.33C287.48 307.401 287.56 307.444 287.644 307.449C287.729 307.454 287.812 307.42 287.875 307.356L298.314 296.882C298.378 296.818 298.417 296.727 298.423 296.629C298.428 296.532 298.399 296.435 298.342 296.362C298.286 296.289 298.206 296.244 298.12 296.238C298.034 296.232 297.95 296.265 297.885 296.329L287.447 306.804C287.415 306.836 287.389 306.875 287.371 306.918C287.352 306.962 287.341 307.009 287.339 307.057C287.336 307.106 287.342 307.154 287.355 307.2C287.369 307.246 287.391 307.288 287.419 307.324L287.423 307.33Z" fill="#0C0C0C"/>
</g>
<path d="M159.963 226.702C157.566 212.988 156.467 203.839 156.594 194.186C159.971 187.443 159.083 179.703 158.315 176.359C161.624 178.415 163.008 178.642 166.123 178.642C166.123 178.642 160.539 153.126 141.56 146.26C138.068 144.714 129.16 142.76 117.329 144.608C107.266 146.179 82.4603 154.746 78.9137 186.543V186.562C78.7959 187.616 76.4147 216.913 71.6665 230.969C65.2827 249.866 56.3217 255.737 56.5487 277.538C56.841 305.582 102.121 309.315 129.434 307.213C156.748 305.112 171.989 294.891 172.188 274.681C172.408 252.037 164.759 254.14 159.963 226.702Z" fill="#0A0A0A"/>
<path d="M159.97 215.207C154.872 216.268 149.742 210.919 148.81 205.115C147.878 199.311 151.496 195.247 156.594 194.186L159.97 215.207Z" fill="#E98862"/>
<path d="M214.804 443.871C209.676 443.87 204.68 442.019 200.533 438.584C196.386 435.149 193.302 430.307 191.722 424.752L158.028 306.099L204.179 289.108L221.9 351.518L252.524 296.066L293.585 325.464L235.329 430.955C233.146 434.908 230.118 438.166 226.528 440.425C222.939 442.683 218.905 443.869 214.804 443.871Z" fill="#B89BF7"/>
<path d="M187.614 411.111C187.594 411.111 187.574 411.109 187.555 411.105C187.47 411.087 187.396 411.032 187.347 410.951C187.299 410.871 187.28 410.771 187.296 410.675L198.75 339.881C198.766 339.785 198.814 339.7 198.885 339.644C198.955 339.589 199.042 339.568 199.127 339.585C199.211 339.603 199.286 339.658 199.335 339.738C199.383 339.819 199.402 339.918 199.386 340.014L187.932 410.809C187.919 410.894 187.879 410.971 187.821 411.026C187.763 411.081 187.69 411.111 187.614 411.111Z" fill="#0C0C0C"/>
<path d="M226.022 368.229C225.95 368.229 225.881 368.202 225.824 368.152C225.767 368.102 225.726 368.032 225.708 367.953L221.893 351.219C221.882 351.172 221.88 351.123 221.885 351.075C221.891 351.027 221.905 350.981 221.927 350.94C221.948 350.898 221.977 350.861 222.011 350.832C222.045 350.803 222.083 350.782 222.125 350.77C222.166 350.758 222.208 350.755 222.25 350.762C222.293 350.768 222.333 350.784 222.37 350.809C222.406 350.833 222.438 350.866 222.464 350.904C222.489 350.943 222.508 350.987 222.519 351.034L226.334 367.768C226.356 367.863 226.343 367.963 226.3 368.047C226.256 368.131 226.185 368.192 226.102 368.217C226.076 368.225 226.049 368.229 226.022 368.229Z" fill="#0C0C0C"/>
<g clip-path="url(#clip0_106_1652)">
<path d="M56.9923 105.284L53.3545 94.3701L49.7167 105.284L38.8032 108.921L49.7167 112.559L53.3545 123.473L56.9923 112.559L67.9058 108.921L56.9923 105.284ZM53.3545 111.395C52.0449 111.395 50.8808 110.377 50.8808 108.921C50.8808 107.612 51.8994 106.448 53.3545 106.448C54.6641 106.448 55.8282 107.466 55.8282 108.921C55.8282 110.231 54.6641 111.395 53.3545 111.395Z" fill="#7D7D7D"/>
<path d="M86.3378 117.976L80.8406 101.484L75.3435 117.976L58.8521 123.473L75.3435 128.97L80.8406 145.461L86.3378 128.97L102.829 123.473L86.3378 117.976ZM80.8406 127.211C78.8617 127.211 77.1026 125.672 77.1026 123.473C77.1026 121.494 78.6418 119.735 80.8406 119.735C82.8196 119.735 84.5787 121.274 84.5787 123.473C84.5787 125.452 82.8196 127.211 80.8406 127.211Z" fill="#7D7D7D"/>
</g>
<defs>
<clipPath id="clip0_106_1652">
<rect width="69.8461" height="69.8461" fill="white" transform="translate(32.9829 82.0824)"/>
</clipPath>
</defs>
</svg>
