<svg width="54" height="54" viewBox="0 0 54 54" fill="none" xmlns="http://www.w3.org/2000/svg">
<circle cx="27" cy="27" r="27" fill="#926BE6"/>
<g clip-path="url(#clip0_90_1267)">
<path d="M32.625 9.03516L45 15.2227V29.0215L42.75 27.8965V17.7363L33.75 22.2363V26.7715L31.5 27.8965V22.2363L22.5 17.7363V21.7266L20.25 20.6016V15.2227L32.625 9.03516ZM32.625 20.2852L35.7363 18.7207L27.5977 14.0625L23.8887 15.9258L32.625 20.2852ZM38.1621 17.5254L41.3613 15.9258L32.625 11.5488L30.0059 12.8672L38.1621 17.5254ZM29.25 29.0215L27 30.1465V30.1289L20.25 33.5039V41.502L27 38.1094V40.6406L19.125 44.5781L9 39.498V27.6152L19.125 22.5527L29.25 27.6152V29.0215ZM18 41.502V33.5039L11.25 30.1289V38.1094L18 41.502ZM19.125 31.5527L25.6113 28.3184L19.125 25.0664L12.6387 28.3184L19.125 31.5527ZM29.25 31.5352L37.125 27.5977L45 31.5352V40.7988L37.125 44.7363L29.25 40.7988V31.5352ZM36 41.6602V36.2988L31.5 34.0488V39.4102L36 41.6602ZM42.75 39.4102V34.0488L38.25 36.2988V41.6602L42.75 39.4102ZM37.125 34.3477L41.3613 32.2207L37.125 30.1113L32.8887 32.2207L37.125 34.3477Z" fill="white"/>
</g>
<defs>
<clipPath id="clip0_90_1267">
<rect width="36" height="36" fill="white" transform="translate(9 9)"/>
</clipPath>
</defs>
</svg>
