<svg width="535" height="422" viewBox="0 0 535 422" fill="none" xmlns="http://www.w3.org/2000/svg">
<g clip-path="url(#clip0_57_1138)">
<path opacity="0.08" d="M123.81 393.469C224.231 460.286 368.938 399.272 458.336 318.208C544.14 240.404 585.866 38.373 431.015 5.30257C366.539 -8.46703 337.217 5.89322 289.733 33.2396C251.398 55.3173 198.725 44.8671 160.63 25.0771C106.763 -2.90504 40.3771 37.7946 11.9559 99.1713C-22.8623 174.387 19.53 324.084 123.81 393.469Z" fill="white"/>
<path opacity="0.1" d="M123.81 393.469C224.231 460.286 368.938 399.272 458.336 318.208C544.14 240.404 585.866 38.373 431.015 5.30257C366.539 -8.46703 337.217 5.89322 289.733 33.2396C251.398 55.3173 198.725 44.8671 160.63 25.0771C106.763 -2.90504 40.3771 37.7946 11.9559 99.1713C-22.8623 174.387 19.53 324.084 123.81 393.469Z" fill="#B89BF6"/>
<path d="M141.717 65.1349C141.717 65.1349 139.523 98.1704 132.118 110.152C110.795 144.656 104.618 183.471 125.97 203.751C147.322 224.031 283.512 224.312 293.83 177.668C302.516 138.399 283.876 134.177 279.34 101.785C277.288 87.1275 271.642 56.392 271.642 56.392" fill="#0A0A0A"/>
<path d="M258.578 170.838C258.343 170.807 255.734 214.245 205.447 210.458C170.634 207.841 158.221 170.774 157.424 170.774C161.178 169.973 167.498 168.809 169.165 167.917C174.647 164.96 181.427 161.885 183.197 151.202C184.219 145.049 182.482 113.546 183.019 107.313L236.461 119.283C235.714 132.44 230.488 162.941 248.805 168.339C251.848 169.232 255.131 170.053 258.578 170.838Z" fill="#E98862"/>
<path opacity="0.5" d="M237.206 155.874C236.369 153.167 235.83 150.376 235.598 147.551C235.011 141.105 235.128 134.614 235.948 128.193C225.088 126.722 214.857 122.224 206.418 115.209C205.426 118.886 199.968 134.955 201.479 138.45C204.331 145.056 217.751 155.874 237.206 155.874Z" fill="#0C0C0C"/>
<path d="M230.296 142.34C209.227 144.391 181.968 135.929 176.321 107.775L171.226 82.3704C165.579 54.2159 175.737 28.4149 202.154 23.0795C228.571 17.7472 252.894 36.5804 258.541 64.7349L260.797 75.985C262.963 86.7849 267.886 138.691 230.296 142.34Z" fill="#E98862"/>
<path d="M245.282 108.67C238.436 112.162 230.627 113.267 223.086 111.809C222.825 111.759 222.555 111.786 222.308 111.884C222.062 111.983 221.848 112.15 221.693 112.366C221.537 112.582 221.446 112.838 221.43 113.105C221.414 113.371 221.474 113.636 221.603 113.869C223.851 117.844 229.183 124.636 238.331 121.867C244.238 120.079 246.47 113.981 247.298 110.209C247.354 109.948 247.335 109.677 247.243 109.426C247.151 109.176 246.99 108.957 246.778 108.795C246.567 108.634 246.313 108.536 246.048 108.514C245.783 108.492 245.517 108.546 245.282 108.67Z" fill="white"/>
<path d="M245.71 78.1189C247.536 78.1189 249.017 76.6328 249.017 74.7996C249.017 72.9663 247.536 71.4802 245.71 71.4802C243.883 71.4802 242.402 72.9663 242.402 74.7996C242.402 76.6328 243.883 78.1189 245.71 78.1189Z" fill="#0C0C0C"/>
<path d="M213.925 83.7035C215.752 83.7035 217.233 82.2174 217.233 80.3842C217.233 78.5509 215.752 77.0648 213.925 77.0648C212.099 77.0648 210.618 78.5509 210.618 80.3842C210.618 82.2174 212.099 83.7035 213.925 83.7035Z" fill="#0C0C0C"/>
<path opacity="0.1" d="M216.904 105.447C220.372 105.032 222.936 102.626 222.633 100.074C222.329 97.5225 219.273 95.7903 215.806 96.2054C212.339 96.6205 209.774 99.0258 210.077 101.578C210.381 104.13 213.437 105.862 216.904 105.447Z" fill="#0C0C0C"/>
<path opacity="0.1" d="M253.54 95.2438C253.846 97.7921 256.907 99.522 260.374 99.1118C260.973 99.0397 261.563 98.9053 262.134 98.7109C262.296 95.6725 262.305 92.749 262.217 90.0428C261.254 89.8015 260.255 89.7428 259.27 89.8695C255.803 90.2807 253.239 92.6844 253.54 95.2438Z" fill="#0C0C0C"/>
<path opacity="0.5" d="M238.219 103.12L238.27 103.112C239.341 102.888 240.399 102.605 241.438 102.264C242.989 101.743 245.015 100.888 244.737 99.4799C244.416 97.8751 236.562 81.4506 235.671 79.5863C235.634 79.5031 235.58 79.4281 235.514 79.3659C235.447 79.3037 235.369 79.2555 235.284 79.2242C235.198 79.1928 235.107 79.179 235.017 79.1834C234.926 79.1879 234.837 79.2105 234.755 79.2501C234.673 79.2896 234.6 79.3452 234.539 79.4136C234.479 79.482 234.433 79.5618 234.404 79.6483C234.376 79.7348 234.364 79.8263 234.371 79.9172C234.378 80.0082 234.403 80.0969 234.445 80.178C237.793 87.1725 243.187 98.6718 243.403 99.7526C243.234 100.256 240.661 101.24 238.005 101.777C237.827 101.806 237.668 101.904 237.562 102.051C237.457 102.198 237.413 102.38 237.442 102.559C237.471 102.737 237.569 102.897 237.715 103.003C237.861 103.109 238.043 103.152 238.221 103.123L238.219 103.12Z" fill="#0C0C0C"/>
<path d="M150.148 91.4897L173.831 86.8475C191.72 79.3403 196.796 48.0531 196.796 48.0531C196.796 48.0531 218.875 69.1525 271.642 56.393C271.642 56.393 260.18 -17.5258 182.264 4.91593C157.141 12.1504 139.345 37.8469 141.992 71.8843C143.847 95.7329 150.148 91.4897 150.148 91.4897Z" fill="#0A0A0A"/>
<path d="M179.682 116.021C171.654 117.642 163.418 110.338 161.799 102.28C160.18 94.2225 165.801 88.4667 173.829 86.8455L179.048 91.4076L186.583 114.625L179.682 116.021Z" fill="#E98862"/>
<path d="M241.366 66.4874C243.374 65.0619 245.723 64.1961 248.174 63.9782C249.403 63.8606 250.643 63.9298 251.852 64.1832C253.073 64.4332 254.258 64.836 255.379 65.382L255.414 65.3984C255.539 65.4573 255.682 65.4639 255.811 65.4169C255.941 65.3699 256.047 65.2731 256.106 65.1477C256.165 65.0223 256.171 64.8787 256.124 64.7484C256.077 64.6181 255.981 64.5118 255.856 64.4529C254.668 63.824 253.406 63.3475 252.1 63.0348C250.784 62.7138 249.428 62.5932 248.077 62.6769C245.339 62.8279 242.693 63.7132 240.413 65.2405C240.328 65.2984 240.255 65.3725 240.199 65.4585C240.143 65.5446 240.104 65.641 240.085 65.7421C240.065 65.8432 240.066 65.9471 240.087 66.0479C240.108 66.1487 240.148 66.2444 240.206 66.3295C240.264 66.4146 240.338 66.4875 240.423 66.5439C240.509 66.6004 240.605 66.6394 240.706 66.6586C240.807 66.6778 240.91 66.677 241.011 66.656C241.111 66.6351 241.207 66.5945 241.291 66.5366L241.31 66.5233L241.366 66.4874Z" fill="#0C0C0C"/>
<path d="M219.728 69.4879C217.038 68.952 214.255 69.1496 211.667 70.0601C210.388 70.5021 209.183 71.1343 208.091 71.9356C207.003 72.7265 206.019 73.6515 205.162 74.6889C205.071 74.7915 205.025 74.9258 205.032 75.0627C205.039 75.1996 205.1 75.3282 205.201 75.4206C205.302 75.513 205.435 75.5618 205.571 75.5565C205.708 75.5512 205.837 75.4923 205.93 75.3923L205.958 75.3636C206.785 74.4289 207.726 73.6021 208.758 72.9026C209.78 72.2033 210.901 71.6629 212.083 71.2998C214.43 70.5609 216.931 70.4587 219.33 71.0035L219.389 71.0178C219.591 71.0668 219.803 71.0335 219.98 70.9253C220.157 70.8172 220.283 70.6429 220.332 70.441C220.381 70.2391 220.348 70.026 220.24 69.8486C220.132 69.6712 219.959 69.544 219.757 69.495L219.728 69.4879Z" fill="#0C0C0C"/>
<path d="M173.847 86.4579C189.767 80.5103 195.05 69.4786 196.676 61.269C197.729 55.7938 197.631 50.1583 196.387 44.7235L195.895 44.8589C197.12 50.2231 197.214 55.7849 196.173 61.188C194.566 69.2633 189.359 80.1186 173.668 85.978L173.847 86.4579Z" fill="#0C0C0C"/>
<path d="M321.276 197.638L386.385 371.361L332.348 356.021L455.243 264.039L499.026 324.118L374.43 413.765C370.103 416.871 365.143 418.975 359.908 419.924C354.673 420.874 349.293 420.645 344.157 419.255C339.021 417.865 334.256 415.347 330.207 411.885C326.157 408.423 322.925 404.101 320.742 399.233L320.393 398.425L245.603 228.673L321.276 197.638Z" fill="#B89BF6"/>
<path d="M204.509 199.595C169.671 197.947 168.205 168.274 168.205 168.274C168.205 168.274 150.944 169.393 139.469 170.951C120.683 173.502 108.29 179.895 98.4267 189.791C89.2524 198.998 83.6668 208.959 89.5773 272.556C93.8569 318.604 90.8444 419.89 90.8444 419.89H301.094C301.094 419.89 313.702 287.131 315.46 266.403C318.813 226.831 332.549 204.528 313.35 184.144C299.427 169.362 263.483 168.274 249.016 168.277C248.781 168.275 251.952 201.838 204.509 199.595Z" fill="#B89BF6"/>
<path d="M406.62 206.203C393.551 184.054 363.976 181.394 341.904 194.513L340.505 195.385L339.567 193.868C326.057 171.987 298.518 160.573 276.712 174.13C266.241 180.64 258.776 191.058 255.959 203.091C253.142 215.124 255.204 227.788 261.691 238.296L306.568 309.438C308.024 311.745 310.326 313.386 312.977 314.006C315.627 314.625 318.415 314.174 320.737 312.749L391.961 269.036C402.011 262.484 409.148 252.287 411.88 240.578C414.612 228.868 412.727 216.551 406.62 206.203Z" fill="#B89BF6"/>
<path opacity="0.6" d="M406.62 206.203C393.551 184.054 363.976 181.394 341.904 194.513L340.505 195.385L339.567 193.868C326.057 171.987 298.518 160.573 276.712 174.13C266.241 180.64 258.776 191.058 255.959 203.091C253.142 215.124 255.204 227.788 261.691 238.296L306.568 309.438C308.024 311.745 310.326 313.386 312.977 314.006C315.627 314.625 318.415 314.174 320.737 312.749L391.961 269.036C402.011 262.484 409.148 252.287 411.88 240.578C414.612 228.868 412.727 216.551 406.62 206.203Z" fill="white"/>
<path d="M331.375 252.011C308.203 237.996 279.41 250.363 265.444 273.616L264.578 275.127L262.952 274.189C239.504 260.643 208.24 263.86 194.742 287.39C188.259 298.689 186.515 312.109 189.893 324.699C193.27 337.288 201.494 348.016 212.753 354.521L289.877 398.082C292.379 399.495 295.334 399.864 298.105 399.109C300.876 398.354 303.24 396.536 304.686 394.047L349.055 317.719C355.125 306.593 356.675 293.543 353.38 281.298C350.085 269.052 342.2 258.559 331.375 252.011Z" fill="#B89BF6"/>
<path opacity="0.5" d="M331.375 252.011C308.203 237.996 279.41 250.363 265.444 273.616L264.578 275.127L262.952 274.189C239.504 260.643 208.24 263.86 194.742 287.39C188.259 298.689 186.515 312.109 189.893 324.699C193.27 337.288 201.494 348.016 212.753 354.521L289.877 398.082C292.379 399.495 295.334 399.864 298.105 399.109C300.876 398.354 303.24 396.536 304.686 394.047L349.055 317.719C355.125 306.593 356.675 293.543 353.38 281.298C350.085 269.052 342.2 258.559 331.375 252.011Z" fill="white"/>
<path d="M311.171 284.983C311.179 284.847 311.242 284.72 311.343 284.63C311.445 284.54 311.579 284.494 311.714 284.502C311.85 284.511 311.976 284.573 312.066 284.675C312.156 284.778 312.201 284.911 312.193 285.047L307.916 353.571C307.909 353.695 307.857 353.811 307.771 353.899C307.685 353.987 307.57 354.041 307.447 354.051C307.424 354.051 307.399 354.051 307.375 354.051C307.239 354.043 307.113 353.981 307.023 353.879C306.934 353.777 306.888 353.643 306.896 353.508" fill="#0C0C0C"/>
<path d="M470.555 278.832C470.609 278.079 470.815 277.345 471.16 276.675C471.506 276.004 471.984 275.411 472.566 274.933C473.148 274.454 473.82 274.099 474.543 273.89C475.266 273.68 476.024 273.621 476.77 273.715C478.208 273.948 479.505 274.72 480.398 275.875C481.291 277.03 481.713 278.483 481.58 279.939L481.047 287.424L491.997 267.26C493.342 264.697 496.626 262.412 499.392 264.115C501.72 265.346 506.107 264.676 507.723 267.761C507.751 267.771 516.205 297.806 514.958 300.189C509.668 310.281 491.878 317.006 480.57 315.878L462.773 314.089L470.555 278.832Z" fill="#E98862"/>
<g opacity="0.1">
<path d="M470.555 278.832C470.609 278.079 470.815 277.345 471.16 276.675C471.506 276.004 471.984 275.411 472.566 274.933C473.148 274.454 473.82 274.099 474.543 273.89C475.266 273.68 476.024 273.621 476.77 273.715C478.208 273.948 479.505 274.72 480.398 275.875C481.291 277.03 481.713 278.483 481.58 279.939L481.047 287.424L491.997 267.26C493.342 264.697 496.626 262.412 499.392 264.115C501.72 265.346 506.107 264.676 507.723 267.761C507.751 267.771 516.205 297.806 514.958 300.189C509.668 310.281 491.878 317.006 480.57 315.878L462.773 314.089L470.555 278.832Z" fill="#0C0C0C"/>
</g>
<path d="M490.044 256.005C469.607 230.061 431.491 231.777 405.637 252.287L404.002 253.638L402.548 251.868C381.6 226.335 344.571 216.561 319.129 237.588C313.079 242.588 308.07 248.734 304.388 255.676C300.706 262.619 298.422 270.221 297.667 278.049C296.913 285.877 297.702 293.777 299.99 301.299C302.278 308.821 306.021 315.817 311.003 321.887L380.34 404.727C382.59 407.414 385.802 409.106 389.284 409.437C392.765 409.768 396.237 408.712 398.949 406.496L482.143 338.538C493.816 328.462 501.156 314.247 502.629 298.866C504.101 283.485 499.592 268.128 490.044 256.005Z" fill="#0CBC8B"/>
<path d="M490.965 293.307C490.963 292.315 491.285 291.35 491.88 290.558C492.476 289.766 493.313 289.192 494.264 288.921C494.231 288.849 494.098 288.696 494.227 288.645L490.498 287.982C489.396 287.811 488.393 287.245 487.675 286.39C486.956 285.534 486.571 284.446 486.589 283.328C486.643 282.224 487.104 281.179 487.882 280.396C488.659 279.614 489.699 279.149 490.799 279.092C490.774 279.056 490.782 279.005 490.769 278.962L489.236 278.69C488.198 278.524 487.25 278.004 486.55 277.217C485.851 276.43 485.444 275.425 485.399 274.372C485.384 273.71 485.515 273.054 485.783 272.45C486.052 271.846 486.45 271.309 486.95 270.879C487.45 270.448 488.039 270.134 488.675 269.959C489.31 269.785 489.977 269.754 490.625 269.869L494.159 270.497C494.159 270.478 494.143 270.464 494.146 270.444C494.149 270.425 494.175 270.405 494.183 270.383C493.253 269.991 492.484 269.294 492.001 268.406C491.518 267.518 491.351 266.492 491.526 265.495C491.811 262.895 494.872 261.927 497.157 262.333L504.254 264.179C505.349 264.463 506.357 265.014 507.188 265.783C508.02 266.553 508.649 267.516 509.02 268.588C512.232 277.867 520.045 302.305 512.753 301.009L494.804 297.818C493.756 297.601 492.809 297.04 492.114 296.223C491.419 295.406 491.015 294.38 490.965 293.307Z" fill="#E98862"/>
<path d="M274.197 327.929L302.076 306.695C302.689 306.229 303.392 305.896 304.14 305.717C304.888 305.538 305.665 305.517 306.421 305.656C307.178 305.795 307.897 306.09 308.534 306.524C309.17 306.957 309.71 307.518 310.118 308.172C310.835 309.403 311.07 310.856 310.779 312.251C310.489 313.647 309.692 314.883 308.543 315.722L302.566 320.275L327.914 314.617C330.721 313.939 334.599 314.908 335.15 318.118C335.442 319.339 335.313 320.624 334.784 321.763C334.255 322.901 333.358 323.827 332.238 324.387C332.251 324.412 332.261 324.438 332.268 324.465C332.27 324.487 332.27 324.508 332.268 324.53L336.597 323.484C337.399 323.29 338.234 323.279 339.041 323.45C339.848 323.622 340.606 323.972 341.261 324.475C341.916 324.977 342.451 325.621 342.827 326.357C343.203 327.094 343.411 327.906 343.434 328.733C343.445 330.037 343.01 331.305 342.201 332.325C341.392 333.345 340.258 334.055 338.99 334.337L337.151 334.783C337.139 334.843 337.117 334.899 337.085 334.95C338.399 334.939 339.674 335.397 340.682 336.243C341.69 337.088 342.366 338.266 342.588 339.565C342.79 340.994 342.446 342.447 341.627 343.634C340.808 344.821 339.573 345.654 338.168 345.967L333.594 347.072C333.669 347.102 333.736 347.15 333.79 347.212C333.843 347.273 333.881 347.347 333.9 347.426C333.919 347.521 333.91 347.62 333.874 347.71C335.047 348.026 336.084 348.721 336.825 349.686C337.566 350.652 337.971 351.835 337.977 353.054C337.958 354.334 337.508 355.57 336.701 356.562C335.894 357.554 334.776 358.244 333.53 358.519L294.923 367.851C289.522 369.156 283.856 368.813 278.65 366.865C273.445 364.918 268.938 361.454 265.707 356.919C262.921 353.009 261.763 348.163 262.481 343.41C263.199 338.658 265.735 334.373 269.551 331.467L274.197 327.929Z" fill="#E98862"/>
<g opacity="0.2">
<path d="M307.174 330.113C307.206 330.243 307.288 330.356 307.401 330.426C307.515 330.497 307.651 330.52 307.781 330.491L331.881 325.079C332.013 325.049 332.129 324.967 332.201 324.852C332.274 324.737 332.298 324.598 332.268 324.465C332.239 324.332 332.158 324.217 332.043 324.144C331.928 324.071 331.79 324.047 331.657 324.077L307.557 329.489C307.492 329.504 307.43 329.531 307.375 329.57C307.32 329.609 307.273 329.659 307.237 329.716C307.201 329.773 307.177 329.837 307.165 329.904C307.154 329.97 307.156 330.038 307.171 330.104L307.174 330.113Z" fill="#0C0C0C"/>
</g>
<g opacity="0.2">
<path d="M309.26 340.846C309.292 340.976 309.374 341.088 309.487 341.158C309.601 341.229 309.738 341.251 309.868 341.222L336.762 335.182C336.828 335.168 336.89 335.14 336.946 335.101C337.001 335.062 337.048 335.013 337.084 334.955C337.12 334.898 337.144 334.835 337.155 334.768C337.167 334.701 337.165 334.633 337.15 334.567C337.116 334.436 337.034 334.323 336.92 334.251C336.806 334.179 336.669 334.153 336.537 334.179L309.641 340.219C309.575 340.234 309.513 340.262 309.458 340.301C309.403 340.34 309.356 340.389 309.32 340.446C309.284 340.503 309.26 340.567 309.249 340.634C309.238 340.7 309.24 340.769 309.255 340.834L309.26 340.846Z" fill="#0C0C0C"/>
</g>
<g opacity="0.2">
<path d="M311.452 352.481C311.484 352.611 311.566 352.723 311.679 352.794C311.793 352.864 311.929 352.887 312.06 352.858L333.519 348.038C333.651 348.008 333.766 347.927 333.839 347.812C333.911 347.697 333.935 347.558 333.906 347.425C333.876 347.293 333.795 347.177 333.68 347.104C333.566 347.032 333.427 347.007 333.295 347.037L311.836 351.857C311.77 351.872 311.708 351.899 311.653 351.938C311.598 351.977 311.551 352.027 311.515 352.084C311.479 352.141 311.455 352.205 311.444 352.271C311.432 352.338 311.434 352.406 311.45 352.472L311.452 352.481Z" fill="#0C0C0C"/>
</g>
<path d="M286.169 378.735L108.99 419.151C103.104 419.794 97.1495 419.06 91.5939 417.005C86.0384 414.951 81.0328 411.633 76.9698 407.311C72.9069 402.989 69.8972 397.782 68.1768 392.097C66.4564 386.412 66.0722 380.404 67.0543 374.545L87.3302 210.885C89.0163 200.827 94.6148 191.854 102.894 185.939C111.173 180.024 121.455 177.651 131.477 179.343C141.499 181.035 150.441 186.653 156.336 194.961C162.231 203.269 164.595 213.587 162.909 223.644L153.145 340.785L276.243 312.831L286.169 378.735Z" fill="#B89BF6"/>
<path d="M128.235 345.387C128.099 345.397 127.965 345.353 127.862 345.264C127.76 345.175 127.696 345.048 127.686 344.912C127.677 344.776 127.721 344.642 127.81 344.539C127.899 344.435 128.025 344.372 128.16 344.362L152.849 339.073C152.916 339.062 152.984 339.064 153.049 339.08C153.115 339.096 153.176 339.125 153.23 339.165C153.285 339.205 153.33 339.256 153.364 339.314C153.399 339.372 153.421 339.436 153.43 339.503C153.45 339.638 153.416 339.774 153.335 339.884C153.255 339.993 153.135 340.066 153.001 340.086L128.311 345.376C128.286 345.382 128.26 345.386 128.235 345.387Z" fill="#0C0C0C"/>
<path d="M114.305 419.89C114.17 419.898 114.037 419.853 113.934 419.763C113.832 419.673 113.77 419.546 113.761 419.41C113.753 419.274 113.798 419.14 113.887 419.038C113.977 418.936 114.104 418.873 114.239 418.864L285.057 378.492L275.378 313.581L153.014 340.093C152.935 340.104 152.854 340.095 152.778 340.069C152.703 340.043 152.634 339.999 152.579 339.941C152.523 339.883 152.482 339.813 152.458 339.736C152.435 339.66 152.429 339.578 152.443 339.499L159.307 272.569C159.317 272.502 159.34 272.438 159.375 272.38C159.411 272.323 159.457 272.273 159.512 272.234C159.567 272.194 159.629 272.167 159.695 272.152C159.761 272.137 159.829 272.136 159.895 272.148C160.029 272.171 160.148 272.246 160.227 272.357C160.305 272.467 160.337 272.605 160.314 272.739L153.57 338.982L275.616 312.454C275.682 312.436 275.75 312.431 275.818 312.44C275.885 312.449 275.95 312.471 276.009 312.506C276.068 312.54 276.119 312.586 276.16 312.641C276.201 312.696 276.231 312.758 276.247 312.825L286.173 378.733C286.204 378.862 286.184 378.999 286.117 379.114C286.049 379.228 285.94 379.312 285.812 379.348L114.372 419.886C114.35 419.888 114.328 419.89 114.305 419.89Z" fill="#0C0C0C"/>
<path d="M506.082 121.345C499.338 109.911 484.068 108.538 472.673 115.308L471.951 115.758L471.467 114.974C464.493 103.678 450.276 97.7869 439.019 104.784C433.614 108.145 429.761 113.523 428.307 119.734C426.852 125.945 427.916 132.482 431.264 137.906L454.432 174.632C455.183 175.824 456.372 176.671 457.74 176.99C459.109 177.31 460.548 177.077 461.746 176.342L498.513 153.776C503.7 150.394 507.383 145.131 508.794 139.087C510.204 133.044 509.233 126.687 506.082 121.345Z" fill="#0CBC8B"/>
<path opacity="0.2" d="M506.082 121.345C499.338 109.911 484.068 108.538 472.673 115.308L471.951 115.758L471.467 114.974C464.493 103.678 450.276 97.7869 439.019 104.784C433.614 108.145 429.761 113.523 428.307 119.734C426.852 125.945 427.916 132.482 431.264 137.906L454.432 174.632C455.183 175.824 456.372 176.671 457.74 176.99C459.109 177.31 460.548 177.077 461.746 176.342L498.513 153.776C503.7 150.394 507.383 145.131 508.794 139.087C510.204 133.044 509.233 126.687 506.082 121.345Z" fill="white"/>
<path d="M405.391 13.5009C399.265 9.90265 391.752 13.2446 388.168 19.3921L387.945 19.791L387.516 19.551C381.318 16.0768 373.128 17.0264 369.666 23.2426C368.842 24.7213 368.317 26.3484 368.12 28.0309C367.923 29.7133 368.058 31.4183 368.518 33.0482C368.978 34.6782 369.753 36.2013 370.8 37.5305C371.847 38.8597 373.144 39.969 374.618 40.795L394.997 51.961C395.658 52.3233 396.435 52.4101 397.159 52.2027C397.883 51.9953 398.498 51.5103 398.869 50.8525L410.251 30.6781C411.806 27.7387 412.168 24.3102 411.263 21.109C410.357 17.9078 408.253 15.1819 405.391 13.5009Z" fill="#B89BF6"/>
<path opacity="0.5" d="M405.391 13.5009C399.265 9.90265 391.752 13.2446 388.168 19.3921L387.945 19.791L387.516 19.551C381.318 16.0768 373.128 17.0264 369.666 23.2426C368.842 24.7213 368.317 26.3484 368.12 28.0309C367.923 29.7133 368.058 31.4183 368.518 33.0482C368.978 34.6782 369.753 36.2013 370.8 37.5305C371.847 38.8597 373.144 39.969 374.618 40.795L394.997 51.961C395.658 52.3233 396.435 52.4101 397.159 52.2027C397.883 51.9953 398.498 51.5103 398.869 50.8525L410.251 30.6781C411.806 27.7387 412.168 24.3102 411.263 21.109C410.357 17.9078 408.253 15.1819 405.391 13.5009Z" fill="white"/>
<path d="M502.394 420.915H51.5473C51.2762 420.915 51.0163 420.807 50.8247 420.615C50.6331 420.423 50.5254 420.162 50.5254 419.89C50.5254 419.618 50.6331 419.357 50.8247 419.165C51.0163 418.972 51.2762 418.864 51.5473 418.864H502.396C502.667 418.864 502.927 418.972 503.119 419.165C503.311 419.357 503.418 419.618 503.418 419.89C503.418 420.162 503.311 420.423 503.119 420.615C502.927 420.807 502.667 420.915 502.396 420.915H502.394Z" fill="#292A2E"/>
</g>
<defs>
<clipPath id="clip0_57_1138">
<rect width="535" height="422" fill="white"/>
</clipPath>
</defs>
</svg>
